<svg xmlns="http://www.w3.org/2000/svg" xmlns:xlink="http://www.w3.org/1999/xlink" width="1080" zoomAndPan="magnify" viewBox="0 0 810 809.999993" height="1080" preserveAspectRatio="xMidYMid meet" version="1.0"><defs><filter x="0%" y="0%" width="100%" height="100%" id="ae640dd5c5"><feColorMatrix values="0 0 0 0 1 0 0 0 0 1 0 0 0 0 1 0 0 0 1 0" color-interpolation-filters="sRGB"/></filter><mask id="46e631a847"><g filter="url(#ae640dd5c5)"><rect x="-81" width="972" fill="#000000" y="-80.999999" height="971.999992" fill-opacity="0.6667"/></g></mask><clipPath id="3cb8483d94"><path d="M 0.136719 0.316406 L 798.683594 0.316406 L 798.683594 798.863281 L 0.136719 798.863281 Z M 0.136719 0.316406 " clip-rule="nonzero"/></clipPath><clipPath id="406c8feff4"><path d="M 399.410156 0.316406 C 178.898438 0.316406 0.136719 179.078125 0.136719 399.589844 C 0.136719 620.101562 178.898438 798.863281 399.410156 798.863281 C 619.921875 798.863281 798.683594 620.101562 798.683594 399.589844 C 798.683594 179.078125 619.921875 0.316406 399.410156 0.316406 " clip-rule="nonzero"/></clipPath><clipPath id="f0adbc5b02"><rect x="0" width="799" y="0" height="799"/></clipPath><clipPath id="4614f8cb49"><path d="M 24.453125 25.636719 L 784.121094 25.636719 L 784.121094 785.300781 L 24.453125 785.300781 Z M 24.453125 25.636719 " clip-rule="nonzero"/></clipPath></defs><g mask="url(#46e631a847)"><g transform="matrix(1, 0, 0, 1, 5, 6)"><g clip-path="url(#f0adbc5b02)"><g clip-path="url(#3cb8483d94)"><g clip-path="url(#406c8feff4)"><path fill="#ffffff" d="M 0.136719 0.316406 L 798.683594 0.316406 L 798.683594 798.863281 L 0.136719 798.863281 Z M 0.136719 0.316406 " fill-opacity="1" fill-rule="nonzero"/></g></g></g></g></g><g clip-path="url(#4614f8cb49)"><path fill="#ffffff" d="M 404.464844 25.636719 C 398.246094 25.636719 392.035156 25.792969 385.824219 26.101562 C 379.613281 26.40625 373.417969 26.867188 367.230469 27.476562 C 361.042969 28.089844 354.875 28.851562 348.726562 29.765625 C 342.578125 30.679688 336.453125 31.746094 330.355469 32.960938 C 324.261719 34.175781 318.195312 35.539062 312.167969 37.050781 C 306.136719 38.5625 300.148438 40.222656 294.199219 42.03125 C 288.25 43.835938 282.351562 45.789062 276.496094 47.886719 C 270.644531 49.980469 264.847656 52.21875 259.105469 54.601562 C 253.359375 56.980469 247.679688 59.503906 242.0625 62.164062 C 236.441406 64.820312 230.890625 67.617188 225.410156 70.550781 C 219.929688 73.484375 214.523438 76.546875 209.191406 79.746094 C 203.859375 82.945312 198.609375 86.269531 193.441406 89.726562 C 188.273438 93.183594 183.191406 96.761719 178.199219 100.46875 C 173.207031 104.171875 168.3125 107.996094 163.507812 111.941406 C 158.703125 115.886719 153.996094 119.949219 149.390625 124.125 C 144.789062 128.300781 140.289062 132.589844 135.894531 136.988281 C 131.5 141.382812 127.214844 145.886719 123.039062 150.496094 C 118.867188 155.101562 114.808594 159.808594 110.867188 164.617188 C 106.925781 169.421875 103.101562 174.324219 99.402344 179.320312 C 95.699219 184.3125 92.121094 189.394531 88.671875 194.566406 C 85.21875 199.734375 81.894531 204.988281 78.699219 210.320312 C 75.507812 215.65625 72.445312 221.0625 69.515625 226.546875 C 66.585938 232.03125 63.792969 237.582031 61.136719 243.203125 C 58.480469 248.824219 55.964844 254.507812 53.585938 260.25 C 51.210938 265.996094 48.976562 271.792969 46.882812 277.648438 C 44.789062 283.503906 42.84375 289.40625 41.039062 295.355469 C 39.238281 301.304688 37.582031 307.292969 36.074219 313.324219 C 34.5625 319.355469 33.203125 325.421875 31.992188 331.519531 C 30.78125 337.617188 29.722656 343.742188 28.8125 349.890625 C 27.902344 356.039062 27.140625 362.207031 26.535156 368.394531 C 25.925781 374.582031 25.472656 380.78125 25.167969 386.988281 C 24.867188 393.199219 24.714844 399.414062 24.71875 405.628906 C 24.71875 411.847656 24.875 418.058594 25.179688 424.269531 C 25.488281 430.476562 25.945312 436.675781 26.558594 442.863281 C 27.167969 449.050781 27.929688 455.21875 28.84375 461.367188 C 29.757812 467.515625 30.824219 473.640625 32.039062 479.734375 C 33.253906 485.832031 34.617188 491.894531 36.128906 497.925781 C 37.640625 503.957031 39.300781 509.945312 41.109375 515.894531 C 42.914062 521.84375 44.867188 527.742188 46.960938 533.597656 C 49.058594 539.449219 51.296875 545.246094 53.675781 550.988281 C 56.058594 556.734375 58.578125 562.414062 61.238281 568.03125 C 63.898438 573.652344 66.691406 579.203125 69.625 584.683594 C 72.558594 590.167969 75.621094 595.574219 78.820312 600.90625 C 82.019531 606.234375 85.34375 611.484375 88.800781 616.652344 C 92.253906 621.820312 95.835938 626.902344 99.539062 631.894531 C 103.246094 636.886719 107.070312 641.785156 111.015625 646.589844 C 114.960938 651.394531 119.019531 656.097656 123.199219 660.703125 C 127.375 665.308594 131.660156 669.808594 136.058594 674.203125 C 140.457031 678.597656 144.957031 682.882812 149.566406 687.058594 C 154.171875 691.230469 158.878906 695.289062 163.6875 699.230469 C 168.492188 703.171875 173.394531 706.996094 178.386719 710.699219 C 183.382812 714.398438 188.464844 717.976562 193.636719 721.429688 C 198.804688 724.882812 204.058594 728.203125 209.390625 731.398438 C 214.722656 734.59375 220.132812 737.65625 225.617188 740.585938 C 231.097656 743.515625 236.652344 746.308594 242.273438 748.964844 C 247.890625 751.621094 253.574219 754.136719 259.320312 756.515625 C 265.0625 758.890625 270.863281 761.125 276.714844 763.21875 C 282.570312 765.3125 288.472656 767.261719 294.421875 769.0625 C 300.371094 770.867188 306.363281 772.523438 312.394531 774.03125 C 318.425781 775.539062 324.488281 776.898438 330.585938 778.109375 C 336.683594 779.324219 342.808594 780.382812 348.957031 781.292969 C 355.105469 782.203125 361.273438 782.964844 367.460938 783.570312 C 373.648438 784.179688 379.847656 784.632812 386.058594 784.9375 C 392.265625 785.242188 398.480469 785.390625 404.695312 785.390625 C 410.914062 785.386719 417.125 785.234375 423.335938 784.925781 C 429.542969 784.621094 435.742188 784.160156 441.929688 783.550781 C 448.117188 782.941406 454.285156 782.175781 460.433594 781.261719 C 466.582031 780.351562 472.707031 779.285156 478.804688 778.070312 C 484.898438 776.855469 490.964844 775.492188 496.992188 773.980469 C 503.023438 772.46875 509.011719 770.808594 514.960938 769.003906 C 520.910156 767.199219 526.8125 765.246094 532.664062 763.152344 C 538.515625 761.054688 544.316406 758.816406 550.058594 756.4375 C 555.800781 754.054688 561.480469 751.535156 567.101562 748.875 C 572.71875 746.214844 578.269531 743.421875 583.753906 740.488281 C 589.234375 737.554688 594.640625 734.492188 599.972656 731.292969 C 605.304688 728.097656 610.554688 724.769531 615.722656 721.316406 C 620.890625 717.859375 625.972656 714.28125 630.964844 710.574219 C 635.957031 706.871094 640.855469 703.046875 645.660156 699.101562 C 650.464844 695.15625 655.167969 691.09375 659.773438 686.917969 C 664.378906 682.742188 668.878906 678.457031 673.273438 674.058594 C 677.667969 669.664062 681.953125 665.160156 686.128906 660.554688 C 690.300781 655.945312 694.359375 651.238281 698.304688 646.433594 C 702.246094 641.625 706.066406 636.722656 709.769531 631.730469 C 713.472656 626.734375 717.050781 621.652344 720.503906 616.484375 C 723.953125 611.3125 727.277344 606.0625 730.472656 600.730469 C 733.667969 595.394531 736.730469 589.988281 739.660156 584.503906 C 742.589844 579.019531 745.382812 573.46875 748.039062 567.847656 C 750.695312 562.226562 753.210938 556.546875 755.589844 550.800781 C 757.96875 545.058594 760.203125 539.257812 762.296875 533.40625 C 764.390625 527.550781 766.335938 521.648438 768.140625 515.699219 C 769.945312 509.75 771.597656 503.757812 773.109375 497.726562 C 774.617188 491.699219 775.976562 485.632812 777.1875 479.535156 C 778.402344 473.4375 779.460938 467.3125 780.371094 461.164062 C 781.285156 455.015625 782.042969 448.847656 782.652344 442.660156 C 783.257812 436.472656 783.714844 430.273438 784.019531 424.066406 C 784.320312 417.855469 784.472656 411.640625 784.472656 405.425781 C 784.457031 399.210938 784.292969 393 783.976562 386.792969 C 783.660156 380.589844 783.191406 374.394531 782.570312 368.210938 C 781.949219 362.027344 781.179688 355.863281 780.253906 349.71875 C 779.332031 343.570312 778.261719 337.453125 777.039062 331.359375 C 775.816406 325.265625 774.445312 319.207031 772.925781 313.183594 C 771.40625 307.15625 769.742188 301.171875 767.929688 295.226562 C 766.117188 289.28125 764.160156 283.386719 762.058594 277.539062 C 759.957031 271.691406 757.714844 265.894531 755.332031 260.15625 C 752.945312 254.417969 750.421875 248.742188 747.757812 243.128906 C 745.097656 237.511719 742.296875 231.964844 739.363281 226.488281 C 736.429688 221.011719 733.363281 215.609375 730.160156 210.28125 C 726.960938 204.953125 723.636719 199.707031 720.179688 194.542969 C 716.722656 189.378906 713.140625 184.300781 709.4375 179.3125 C 705.730469 174.324219 701.90625 169.429688 697.960938 164.625 C 694.015625 159.824219 689.957031 155.121094 685.78125 150.519531 C 681.605469 145.917969 677.320312 141.417969 672.925781 137.027344 C 668.53125 132.632812 664.03125 128.351562 659.425781 124.179688 C 654.820312 120.003906 650.117188 115.949219 645.3125 112.007812 C 640.507812 108.0625 635.609375 104.242188 630.617188 100.539062 C 625.628906 96.839844 620.550781 93.261719 615.382812 89.808594 C 610.214844 86.355469 604.96875 83.027344 599.640625 79.832031 C 594.308594 76.636719 588.90625 73.574219 583.425781 70.640625 C 577.945312 67.710938 572.398438 64.914062 566.78125 62.253906 C 561.164062 59.59375 555.488281 57.074219 549.746094 54.691406 C 544.007812 52.3125 538.214844 50.070312 532.363281 47.972656 C 526.515625 45.875 520.617188 43.921875 514.671875 42.113281 C 508.726562 40.304688 502.738281 38.644531 496.714844 37.128906 C 490.6875 35.613281 484.625 34.246094 478.53125 33.027344 C 472.4375 31.808594 466.320312 30.738281 460.171875 29.820312 C 454.027344 28.902344 447.863281 28.132812 441.679688 27.515625 C 435.496094 26.898438 429.300781 26.433594 423.09375 26.121094 C 416.886719 25.804688 410.675781 25.644531 404.464844 25.636719 Z M 509.367188 725.945312 C 492.886719 729.3125 486.8125 719.171875 486.8125 710.429688 C 486.8125 699.28125 487.292969 663.878906 487.292969 619.777344 C 487.292969 589.179688 476.890625 569.160156 465 558.976562 C 538.214844 550.714844 615.273438 522.871094 615.273438 396.335938 C 615.335938 392.289062 615.207031 388.25 614.882812 384.214844 C 614.558594 380.179688 614.042969 376.171875 613.335938 372.1875 C 612.632812 368.203125 611.738281 364.261719 610.65625 360.363281 C 609.570312 356.460938 608.304688 352.625 606.855469 348.84375 C 605.40625 345.066406 603.78125 341.367188 601.980469 337.742188 C 600.175781 334.121094 598.203125 330.59375 596.066406 327.15625 C 593.925781 323.722656 591.625 320.398438 589.167969 317.183594 C 586.710938 313.96875 584.105469 310.875 581.355469 307.910156 C 584.71875 299.648438 596.347656 265.949219 578.164062 220.492188 C 578.164062 220.492188 550.539062 211.488281 487.554688 254.148438 C 474.140625 250.535156 460.542969 247.820312 446.769531 245.996094 C 432.996094 244.175781 419.164062 243.265625 405.273438 243.265625 C 391.378906 243.265625 377.546875 244.175781 363.773438 245.996094 C 350 247.820312 336.40625 250.535156 322.988281 254.148438 C 260.003906 212.011719 232.335938 220.492188 232.335938 220.492188 C 214.414062 265.773438 225.824219 299.472656 229.1875 307.910156 C 226.457031 310.886719 223.867188 313.984375 221.429688 317.207031 C 218.988281 320.429688 216.707031 323.761719 214.585938 327.199219 C 212.460938 330.636719 210.503906 334.167969 208.714844 337.792969 C 206.925781 341.414062 205.316406 345.117188 203.878906 348.894531 C 202.441406 352.671875 201.183594 356.507812 200.109375 360.402344 C 199.035156 364.296875 198.148438 368.238281 197.449219 372.21875 C 196.75 376.195312 196.238281 380.203125 195.917969 384.230469 C 195.597656 388.257812 195.46875 392.292969 195.53125 396.335938 C 195.53125 522.347656 272.113281 550.714844 345.28125 558.976562 C 335.839844 567.195312 327.097656 581.488281 324.210938 603.078125 C 305.285156 611.558594 258.035156 625.589844 228.488281 575.933594 C 222.195312 565.96875 203.75 541.753906 177.832031 542.015625 C 150.207031 542.496094 166.683594 557.753906 178.09375 563.871094 C 192.125 571.871094 208.121094 600.9375 212.011719 610.378906 C 218.523438 629.042969 239.855469 664.402344 322.507812 649.148438 C 322.507812 676.773438 322.988281 702.734375 322.988281 710.339844 C 322.988281 719.082031 316.957031 728.742188 300.433594 725.859375 C 294.328125 723.8125 288.289062 721.589844 282.316406 719.191406 C 276.339844 716.789062 270.441406 714.21875 264.621094 711.472656 C 258.796875 708.726562 253.058594 705.808594 247.40625 702.726562 C 241.753906 699.644531 236.199219 696.398438 230.734375 692.988281 C 225.273438 689.578125 219.917969 686.011719 214.664062 682.285156 C 209.414062 678.5625 204.277344 674.6875 199.25 670.660156 C 194.226562 666.632812 189.324219 662.464844 184.546875 658.152344 C 179.765625 653.835938 175.117188 649.386719 170.601562 644.800781 C 166.082031 640.210938 161.703125 635.496094 157.460938 630.652344 C 153.21875 625.808594 149.125 620.84375 145.175781 615.757812 C 141.226562 610.675781 137.429688 605.476562 133.785156 600.171875 C 130.140625 594.863281 126.65625 589.453125 123.328125 583.941406 C 120 578.425781 116.839844 572.820312 113.84375 567.125 C 110.84375 561.425781 108.019531 555.644531 105.359375 549.78125 C 102.703125 543.917969 100.21875 537.980469 97.910156 531.96875 C 95.601562 525.957031 93.46875 519.886719 91.515625 513.75 C 89.566406 507.617188 87.792969 501.429688 86.203125 495.1875 C 84.617188 488.949219 83.210938 482.667969 81.992188 476.347656 C 80.769531 470.027344 79.738281 463.675781 78.890625 457.292969 C 78.042969 450.910156 77.382812 444.507812 76.914062 438.085938 C 76.441406 431.664062 76.160156 425.234375 76.066406 418.796875 C 75.972656 412.359375 76.066406 405.925781 76.351562 399.492188 C 76.636719 393.0625 77.109375 386.644531 77.769531 380.238281 C 78.433594 373.835938 79.28125 367.453125 80.316406 361.101562 C 81.355469 354.746094 82.574219 348.425781 83.984375 342.144531 C 85.390625 335.863281 86.980469 329.625 88.753906 323.4375 C 90.527344 317.246094 92.480469 311.113281 94.613281 305.039062 C 96.746094 298.964844 99.058594 292.957031 101.542969 287.019531 C 104.03125 281.082031 106.6875 275.21875 109.519531 269.4375 C 112.351562 263.65625 115.347656 257.960938 118.511719 252.351562 C 121.679688 246.746094 125.003906 241.238281 128.492188 235.824219 C 131.980469 230.414062 135.625 225.109375 139.425781 219.914062 C 143.226562 214.714844 147.175781 209.632812 151.273438 204.667969 C 155.375 199.703125 159.613281 194.863281 163.996094 190.148438 C 168.378906 185.429688 172.898438 180.847656 177.550781 176.394531 C 182.203125 171.945312 186.980469 167.632812 191.886719 163.464844 C 196.792969 159.292969 201.816406 155.269531 206.957031 151.394531 C 212.097656 147.519531 217.347656 143.800781 222.707031 140.234375 C 228.070312 136.667969 233.527344 133.257812 239.089844 130.011719 C 244.648438 126.765625 250.300781 123.6875 256.039062 120.773438 C 261.78125 117.859375 267.605469 115.113281 273.503906 112.542969 C 279.40625 109.96875 285.378906 107.574219 291.421875 105.351562 C 297.464844 103.128906 303.570312 101.089844 309.734375 99.226562 C 315.894531 97.363281 322.109375 95.679688 328.371094 94.183594 C 334.632812 92.683594 340.929688 91.371094 347.269531 90.242188 C 353.609375 89.113281 359.976562 88.171875 366.371094 87.417969 C 372.761719 86.664062 379.175781 86.097656 385.601562 85.722656 C 392.027344 85.34375 398.460938 85.152344 404.898438 85.152344 C 411.339844 85.152344 417.769531 85.34375 424.199219 85.722656 C 430.625 86.097656 437.035156 86.664062 443.429688 87.417969 C 449.824219 88.171875 456.191406 89.113281 462.53125 90.242188 C 468.867188 91.371094 475.167969 92.683594 481.429688 94.183594 C 487.691406 95.679688 493.90625 97.363281 500.066406 99.226562 C 506.230469 101.089844 512.332031 103.128906 518.375 105.351562 C 524.417969 107.574219 530.390625 109.96875 536.292969 112.542969 C 542.195312 115.113281 548.019531 117.859375 553.757812 120.773438 C 559.5 123.6875 565.152344 126.765625 570.710938 130.011719 C 576.269531 133.257812 581.730469 136.667969 587.089844 140.234375 C 592.449219 143.800781 597.703125 147.519531 602.84375 151.394531 C 607.984375 155.269531 613.007812 159.292969 617.914062 163.464844 C 622.820312 167.632812 627.597656 171.945312 632.25 176.394531 C 636.902344 180.847656 641.417969 185.429688 645.800781 190.148438 C 650.183594 194.863281 654.425781 199.703125 658.523438 204.667969 C 662.625 209.632812 666.574219 214.714844 670.371094 219.914062 C 674.171875 225.109375 677.816406 230.414062 681.304688 235.824219 C 684.792969 241.238281 688.121094 246.746094 691.285156 252.351562 C 694.453125 257.960938 697.449219 263.65625 700.28125 269.4375 C 703.109375 275.21875 705.769531 281.082031 708.253906 287.019531 C 710.742188 292.957031 713.050781 298.964844 715.1875 305.039062 C 717.320312 311.113281 719.273438 317.246094 721.046875 323.4375 C 722.820312 329.625 724.410156 335.863281 725.816406 342.144531 C 727.222656 348.425781 728.445312 354.746094 729.480469 361.101562 C 730.519531 367.453125 731.367188 373.835938 732.027344 380.238281 C 732.691406 386.644531 733.164062 393.0625 733.445312 399.492188 C 733.730469 405.925781 733.828125 412.359375 733.734375 418.796875 C 733.640625 425.234375 733.359375 431.664062 732.886719 438.085938 C 732.414062 444.507812 731.757812 450.910156 730.910156 457.292969 C 730.0625 463.675781 729.027344 470.027344 727.808594 476.347656 C 726.589844 482.667969 725.183594 488.949219 723.59375 495.1875 C 722.003906 501.429688 720.234375 507.617188 718.28125 513.75 C 716.332031 519.886719 714.199219 525.957031 711.890625 531.96875 C 709.582031 537.980469 707.097656 543.917969 704.441406 549.78125 C 701.78125 555.644531 698.953125 561.425781 695.957031 567.125 C 692.960938 572.824219 689.796875 578.425781 686.472656 583.941406 C 683.144531 589.453125 679.660156 594.863281 676.015625 600.171875 C 672.371094 605.476562 668.574219 610.675781 664.625 615.757812 C 660.675781 620.84375 656.578125 625.808594 652.339844 630.652344 C 648.097656 635.496094 643.71875 640.210938 639.199219 644.800781 C 634.683594 649.386719 630.035156 653.835938 625.253906 658.152344 C 620.472656 662.464844 615.574219 666.632812 610.546875 670.660156 C 605.523438 674.6875 600.386719 678.5625 595.132812 682.285156 C 589.882812 686.011719 584.527344 689.578125 579.0625 692.988281 C 573.601562 696.398438 568.046875 699.644531 562.394531 702.726562 C 556.742188 705.808594 551.003906 708.726562 545.179688 711.472656 C 539.355469 714.21875 533.457031 716.789062 527.484375 719.191406 C 521.507812 721.589844 515.46875 723.8125 509.363281 725.859375 Z M 509.367188 725.945312 " fill-opacity="1" fill-rule="evenodd"/></g></svg>