<svg xmlns="http://www.w3.org/2000/svg" xmlns:xlink="http://www.w3.org/1999/xlink" width="1080" zoomAndPan="magnify" viewBox="0 0 810 809.999993" height="1080" preserveAspectRatio="xMidYMid meet" version="1.0"><defs><clipPath id="ca772b89c1"><path d="M 10.269531 10.269531 L 800.019531 10.269531 L 800.019531 800.019531 L 10.269531 800.019531 Z M 10.269531 10.269531 " clip-rule="nonzero"/></clipPath></defs><g clip-path="url(#ca772b89c1)"><path fill="#008ba4" d="M 405.328125 10.269531 C 398.863281 10.273438 392.40625 10.433594 385.949219 10.753906 C 379.496094 11.070312 373.050781 11.550781 366.621094 12.183594 C 360.1875 12.820312 353.777344 13.613281 347.382812 14.566406 C 340.992188 15.515625 334.625 16.621094 328.285156 17.886719 C 321.949219 19.148438 315.644531 20.566406 309.375 22.136719 C 303.105469 23.710938 296.878906 25.4375 290.695312 27.3125 C 284.511719 29.191406 278.378906 31.222656 272.292969 33.402344 C 266.210938 35.578125 260.179688 37.90625 254.210938 40.382812 C 248.242188 42.859375 242.335938 45.476562 236.492188 48.242188 C 230.652344 51.007812 224.882812 53.914062 219.183594 56.964844 C 213.484375 60.011719 207.863281 63.199219 202.320312 66.523438 C 196.777344 69.847656 191.320312 73.308594 185.949219 76.898438 C 180.578125 80.492188 175.292969 84.214844 170.105469 88.066406 C 164.914062 91.917969 159.824219 95.894531 154.828125 99.996094 C 149.832031 104.097656 144.941406 108.320312 140.15625 112.660156 C 135.367188 117.003906 130.691406 121.460938 126.121094 126.03125 C 121.554688 130.601562 117.097656 135.285156 112.761719 140.074219 C 108.421875 144.863281 104.203125 149.757812 100.105469 154.753906 C 96.007812 159.753906 92.03125 164.847656 88.183594 170.039062 C 84.335938 175.230469 80.617188 180.515625 77.027344 185.890625 C 73.441406 191.265625 69.984375 196.726562 66.664062 202.269531 C 63.34375 207.8125 60.160156 213.4375 57.117188 219.136719 C 54.070312 224.839844 51.167969 230.609375 48.40625 236.453125 C 45.644531 242.296875 43.027344 248.207031 40.558594 254.175781 C 38.085938 260.148438 35.761719 266.175781 33.585938 272.261719 C 31.410156 278.347656 29.386719 284.484375 27.511719 290.671875 C 25.636719 296.855469 23.917969 303.082031 22.347656 309.351562 C 20.78125 315.621094 19.367188 321.925781 18.105469 328.265625 C 16.847656 334.605469 15.746094 340.972656 14.800781 347.367188 C 13.851562 353.757812 13.0625 360.171875 12.433594 366.605469 C 11.800781 373.035156 11.328125 379.480469 11.011719 385.933594 C 10.699219 392.390625 10.542969 398.847656 10.542969 405.3125 C 10.546875 411.773438 10.707031 418.234375 11.023438 424.6875 C 11.34375 431.144531 11.820312 437.585938 12.457031 444.019531 C 13.09375 450.453125 13.886719 456.863281 14.835938 463.257812 C 15.785156 469.648438 16.890625 476.015625 18.15625 482.351562 C 19.417969 488.691406 20.835938 494.996094 22.40625 501.265625 C 23.980469 507.53125 25.703125 513.757812 27.582031 519.945312 C 29.460938 526.128906 31.488281 532.261719 33.667969 538.347656 C 35.847656 544.429688 38.175781 550.457031 40.648438 556.429688 C 43.125 562.398438 45.746094 568.304688 48.507812 574.148438 C 51.273438 579.988281 54.179688 585.757812 57.230469 591.457031 C 60.277344 597.15625 63.464844 602.777344 66.789062 608.320312 C 70.113281 613.863281 73.570312 619.320312 77.164062 624.691406 C 80.753906 630.066406 84.476562 635.347656 88.328125 640.539062 C 92.179688 645.726562 96.15625 650.820312 100.257812 655.816406 C 104.359375 660.808594 108.582031 665.699219 112.921875 670.488281 C 117.265625 675.277344 121.722656 679.953125 126.292969 684.523438 C 130.863281 689.089844 135.546875 693.542969 140.335938 697.882812 C 145.125 702.222656 150.019531 706.441406 155.015625 710.539062 C 160.011719 714.640625 165.109375 718.613281 170.300781 722.460938 C 175.492188 726.308594 180.777344 730.027344 186.148438 733.617188 C 191.523438 737.207031 196.984375 740.660156 202.53125 743.984375 C 208.074219 747.304688 213.695312 750.488281 219.398438 753.53125 C 225.097656 756.578125 230.871094 759.480469 236.714844 762.242188 C 242.554688 765.003906 248.464844 767.621094 254.433594 770.09375 C 260.40625 772.5625 266.4375 774.886719 272.523438 777.0625 C 278.609375 779.238281 284.742188 781.261719 290.929688 783.136719 C 297.113281 785.011719 303.339844 786.734375 309.609375 788.300781 C 315.878906 789.871094 322.183594 791.285156 328.523438 792.542969 C 334.863281 793.804688 341.230469 794.90625 347.621094 795.851562 C 354.015625 796.800781 360.429688 797.589844 366.859375 798.21875 C 373.292969 798.851562 379.738281 799.324219 386.191406 799.640625 C 392.648438 799.957031 399.105469 800.113281 405.570312 800.113281 C 412.03125 800.109375 418.492188 799.949219 424.945312 799.628906 C 431.402344 799.3125 437.84375 798.835938 444.277344 798.199219 C 450.707031 797.5625 457.121094 796.773438 463.515625 795.820312 C 469.90625 794.871094 476.273438 793.765625 482.609375 792.503906 C 488.949219 791.238281 495.253906 789.824219 501.523438 788.25 C 507.789062 786.679688 514.019531 784.953125 520.203125 783.074219 C 526.386719 781.199219 532.519531 779.171875 538.605469 776.992188 C 544.691406 774.8125 550.71875 772.484375 556.6875 770.011719 C 562.65625 767.535156 568.5625 764.914062 574.40625 762.152344 C 580.246094 759.386719 586.019531 756.480469 591.71875 753.433594 C 597.417969 750.382812 603.035156 747.199219 608.578125 743.875 C 614.121094 740.550781 619.582031 737.089844 624.953125 733.5 C 630.324219 729.90625 635.609375 726.1875 640.796875 722.335938 C 645.988281 718.484375 651.082031 714.507812 656.074219 710.40625 C 661.070312 706.304688 665.960938 702.082031 670.75 697.742188 C 675.535156 693.398438 680.214844 688.945312 684.785156 684.371094 C 689.351562 679.800781 693.808594 675.121094 698.144531 670.332031 C 702.484375 665.539062 706.703125 660.648438 710.804688 655.648438 C 714.902344 650.652344 718.875 645.558594 722.722656 640.367188 C 726.574219 635.175781 730.292969 629.890625 733.882812 624.515625 C 737.472656 619.140625 740.925781 613.683594 744.246094 608.136719 C 747.570312 602.59375 750.753906 596.972656 753.796875 591.269531 C 756.84375 585.570312 759.746094 579.796875 762.507812 573.953125 C 765.269531 568.113281 767.886719 562.203125 770.359375 556.234375 C 772.832031 550.261719 775.152344 544.234375 777.328125 538.148438 C 779.507812 532.0625 781.53125 525.925781 783.40625 519.742188 C 785.28125 513.554688 787.003906 507.328125 788.570312 501.058594 C 790.140625 494.789062 791.554688 488.484375 792.8125 482.144531 C 794.074219 475.804688 795.175781 469.441406 796.121094 463.046875 C 797.070312 456.652344 797.859375 450.242188 798.492188 443.808594 C 799.125 437.375 799.597656 430.933594 799.914062 424.476562 C 800.226562 418.023438 800.386719 411.5625 800.382812 405.101562 C 800.371094 398.640625 800.199219 392.183594 799.871094 385.730469 C 799.539062 379.28125 799.050781 372.839844 798.40625 366.410156 C 797.761719 359.984375 796.960938 353.574219 796 347.1875 C 795.042969 340.796875 793.925781 334.4375 792.65625 328.101562 C 791.386719 321.765625 789.960938 315.46875 788.382812 309.203125 C 786.804688 302.9375 785.070312 296.71875 783.1875 290.539062 C 781.304688 284.359375 779.269531 278.226562 777.085938 272.148438 C 774.902344 266.066406 772.570312 260.046875 770.089844 254.078125 C 767.609375 248.113281 764.988281 242.210938 762.21875 236.375 C 759.449219 230.539062 756.539062 224.773438 753.488281 219.078125 C 750.4375 213.382812 747.25 207.765625 743.925781 202.226562 C 740.597656 196.691406 737.136719 191.234375 733.546875 185.867188 C 729.953125 180.496094 726.230469 175.21875 722.378906 170.035156 C 718.527344 164.847656 714.550781 159.757812 710.449219 154.765625 C 706.347656 149.773438 702.128906 144.886719 697.785156 140.101562 C 693.445312 135.316406 688.992188 130.640625 684.421875 126.070312 C 679.851562 121.503906 675.175781 117.054688 670.386719 112.714844 C 665.597656 108.378906 660.707031 104.160156 655.714844 100.0625 C 650.71875 95.964844 645.628906 91.988281 640.4375 88.140625 C 635.25 84.292969 629.96875 80.574219 624.597656 76.984375 C 619.226562 73.394531 613.773438 69.9375 608.230469 66.613281 C 602.691406 63.292969 597.074219 60.105469 591.375 57.058594 C 585.679688 54.011719 579.914062 51.105469 574.074219 48.339844 C 568.234375 45.574219 562.332031 42.953125 556.363281 40.476562 C 550.398438 38.003906 544.375 35.675781 538.292969 33.492188 C 532.210938 31.3125 526.082031 29.28125 519.898438 27.402344 C 513.71875 25.519531 507.496094 23.792969 501.230469 22.21875 C 494.964844 20.640625 488.664062 19.21875 482.332031 17.953125 C 475.996094 16.6875 469.632812 15.574219 463.242188 14.621094 C 456.855469 13.664062 450.445312 12.867188 444.015625 12.226562 C 437.589844 11.582031 431.148438 11.101562 424.695312 10.773438 C 418.242188 10.449219 411.789062 10.28125 405.328125 10.269531 Z M 514.382812 738.3125 C 497.253906 741.8125 490.9375 731.269531 490.9375 722.179688 C 490.9375 710.59375 491.4375 673.789062 491.4375 627.9375 C 491.4375 596.128906 480.621094 575.320312 468.261719 564.730469 C 544.375 556.144531 624.484375 527.199219 624.484375 395.648438 C 624.550781 391.441406 624.414062 387.242188 624.078125 383.050781 C 623.742188 378.855469 623.207031 374.6875 622.472656 370.546875 C 621.738281 366.402344 620.808594 362.304688 619.683594 358.25 C 618.558594 354.199219 617.242188 350.207031 615.734375 346.277344 C 614.230469 342.351562 612.539062 338.503906 610.664062 334.738281 C 608.789062 330.972656 606.742188 327.304688 604.515625 323.730469 C 602.292969 320.160156 599.902344 316.707031 597.347656 313.363281 C 594.792969 310.019531 592.085938 306.808594 589.222656 303.722656 C 592.722656 295.136719 604.808594 260.101562 585.90625 212.84375 C 585.90625 212.84375 557.1875 203.480469 491.707031 247.832031 C 477.761719 244.078125 463.628906 241.253906 449.3125 239.359375 C 434.992188 237.464844 420.609375 236.519531 406.167969 236.519531 C 391.722656 236.519531 377.34375 237.464844 363.023438 239.359375 C 348.707031 241.253906 334.574219 244.078125 320.625 247.832031 C 255.148438 204.027344 226.382812 212.84375 226.382812 212.84375 C 207.753906 259.917969 219.613281 294.953125 223.113281 303.722656 C 220.269531 306.816406 217.582031 310.039062 215.046875 313.390625 C 212.507812 316.738281 210.136719 320.199219 207.929688 323.773438 C 205.722656 327.351562 203.6875 331.019531 201.828125 334.789062 C 199.96875 338.554688 198.292969 342.402344 196.796875 346.328125 C 195.304688 350.253906 193.996094 354.242188 192.882812 358.292969 C 191.765625 362.34375 190.84375 366.4375 190.117188 370.578125 C 189.386719 374.714844 188.859375 378.878906 188.523438 383.066406 C 188.191406 387.253906 188.058594 391.449219 188.121094 395.648438 C 188.121094 526.652344 267.734375 556.144531 343.800781 564.730469 C 333.984375 573.273438 324.898438 588.132812 321.898438 610.582031 C 302.222656 619.394531 253.101562 633.980469 222.386719 582.363281 C 215.839844 572 196.664062 546.828125 169.71875 547.101562 C 141 547.601562 158.132812 563.460938 169.992188 569.820312 C 184.578125 578.136719 201.210938 608.355469 205.253906 618.167969 C 212.023438 637.570312 234.199219 674.332031 320.125 658.472656 C 320.125 687.191406 320.625 714.183594 320.625 722.089844 C 320.625 731.179688 314.355469 741.222656 297.179688 738.222656 C 290.832031 736.097656 284.554688 733.785156 278.34375 731.289062 C 272.132812 728.796875 266 726.121094 259.945312 723.265625 C 253.890625 720.410156 247.925781 717.378906 242.050781 714.175781 C 236.175781 710.96875 230.398438 707.59375 224.71875 704.050781 C 219.042969 700.503906 213.472656 696.796875 208.015625 692.925781 C 202.554688 689.054688 197.210938 685.023438 191.988281 680.839844 C 186.765625 676.652344 181.667969 672.316406 176.699219 667.832031 C 171.734375 663.347656 166.898438 658.722656 162.203125 653.953125 C 157.503906 649.183594 152.953125 644.28125 148.542969 639.246094 C 144.136719 634.210938 139.878906 629.050781 135.769531 623.761719 C 131.664062 618.476562 127.71875 613.074219 123.929688 607.558594 C 120.140625 602.039062 116.519531 596.414062 113.058594 590.683594 C 109.601562 584.953125 106.3125 579.125 103.199219 573.203125 C 100.082031 567.277344 97.140625 561.269531 94.378906 555.171875 C 91.617188 549.074219 89.035156 542.902344 86.632812 536.65625 C 84.234375 530.40625 82.019531 524.09375 79.988281 517.714844 C 77.957031 511.335938 76.117188 504.90625 74.464844 498.417969 C 72.8125 491.933594 71.355469 485.402344 70.085938 478.832031 C 68.816406 472.257812 67.742188 465.65625 66.863281 459.019531 C 65.980469 452.386719 65.296875 445.730469 64.804688 439.054688 C 64.316406 432.378906 64.023438 425.695312 63.925781 419.003906 C 63.828125 412.308594 63.925781 405.621094 64.222656 398.933594 C 64.519531 392.246094 65.011719 385.574219 65.699219 378.914062 C 66.386719 372.257812 67.269531 365.625 68.34375 359.019531 C 69.421875 352.414062 70.691406 345.84375 72.15625 339.3125 C 73.617188 332.78125 75.273438 326.296875 77.117188 319.863281 C 78.957031 313.429688 80.988281 307.054688 83.207031 300.738281 C 85.425781 294.425781 87.828125 288.179688 90.414062 282.003906 C 92.996094 275.832031 95.761719 269.738281 98.703125 263.726562 C 101.644531 257.714844 104.761719 251.792969 108.054688 245.964844 C 111.34375 240.136719 114.800781 234.410156 118.429688 228.785156 C 122.054688 223.160156 125.84375 217.644531 129.796875 212.242188 C 133.746094 206.839844 137.851562 201.554688 142.113281 196.394531 C 146.375 191.230469 150.78125 186.199219 155.339844 181.296875 C 159.894531 176.394531 164.589844 171.628906 169.429688 167 C 174.265625 162.375 179.230469 157.890625 184.332031 153.558594 C 189.429688 149.222656 194.652344 145.039062 200 141.011719 C 205.34375 136.980469 210.804688 133.113281 216.375 129.40625 C 221.949219 125.699219 227.625 122.15625 233.402344 118.78125 C 239.183594 115.40625 245.058594 112.203125 251.027344 109.175781 C 256.996094 106.144531 263.046875 103.292969 269.183594 100.617188 C 275.320312 97.945312 281.527344 95.453125 287.8125 93.144531 C 294.09375 90.832031 300.4375 88.710938 306.84375 86.773438 C 313.253906 84.835938 319.710938 83.089844 326.21875 81.53125 C 332.730469 79.972656 339.28125 78.609375 345.871094 77.4375 C 352.460938 76.261719 359.078125 75.285156 365.726562 74.5 C 372.371094 73.714844 379.035156 73.128906 385.71875 72.734375 C 392.398438 72.34375 399.085938 72.144531 405.78125 72.144531 C 412.472656 72.144531 419.160156 72.34375 425.84375 72.734375 C 432.527344 73.128906 439.191406 73.714844 445.835938 74.5 C 452.484375 75.285156 459.101562 76.261719 465.691406 77.4375 C 472.28125 78.609375 478.832031 79.972656 485.34375 81.53125 C 491.851562 83.089844 498.308594 84.835938 504.71875 86.773438 C 511.125 88.710938 517.46875 90.832031 523.75 93.144531 C 530.035156 95.453125 536.242188 97.945312 542.378906 100.617188 C 548.515625 103.292969 554.566406 106.144531 560.535156 109.175781 C 566.503906 112.203125 572.378906 115.40625 578.160156 118.78125 C 583.9375 122.15625 589.613281 125.699219 595.1875 129.40625 C 600.757812 133.113281 606.21875 136.980469 611.5625 141.011719 C 616.910156 145.039062 622.132812 149.222656 627.230469 153.558594 C 632.332031 157.890625 637.296875 162.375 642.132812 167 C 646.972656 171.628906 651.667969 176.394531 656.222656 181.296875 C 660.78125 186.199219 665.1875 191.230469 669.449219 196.394531 C 673.710938 201.554688 677.816406 206.839844 681.765625 212.242188 C 685.71875 217.644531 689.507812 223.160156 693.132812 228.785156 C 696.761719 234.410156 700.21875 240.136719 703.507812 245.964844 C 706.800781 251.792969 709.914062 257.714844 712.859375 263.726562 C 715.800781 269.738281 718.566406 275.832031 721.148438 282.003906 C 723.734375 288.179688 726.136719 294.425781 728.355469 300.738281 C 730.574219 307.054688 732.601562 313.429688 734.445312 319.863281 C 736.289062 326.296875 737.945312 332.78125 739.40625 339.3125 C 740.871094 345.84375 742.140625 352.414062 743.21875 359.019531 C 744.292969 365.625 745.175781 372.257812 745.863281 378.914062 C 746.550781 385.574219 747.042969 392.246094 747.339844 398.933594 C 747.636719 405.621094 747.734375 412.308594 747.636719 419.003906 C 747.539062 425.695312 747.246094 432.378906 746.757812 439.054688 C 746.265625 445.730469 745.582031 452.386719 744.699219 459.019531 C 743.820312 465.65625 742.746094 472.257812 741.476562 478.832031 C 740.207031 485.402344 738.75 491.933594 737.097656 498.417969 C 735.445312 504.90625 733.605469 511.335938 731.574219 517.714844 C 729.542969 524.09375 727.328125 530.40625 724.929688 536.65625 C 722.527344 542.902344 719.945312 549.074219 717.183594 555.171875 C 714.417969 561.269531 711.480469 567.277344 708.363281 573.203125 C 705.25 579.125 701.960938 584.953125 698.503906 590.683594 C 695.042969 596.414062 691.421875 602.039062 687.632812 607.558594 C 683.84375 613.074219 679.898438 618.476562 675.792969 623.761719 C 671.683594 629.050781 667.429688 634.210938 663.019531 639.246094 C 658.609375 644.28125 654.058594 649.183594 649.359375 653.953125 C 644.664062 658.722656 639.828125 663.347656 634.863281 667.832031 C 629.894531 672.316406 624.796875 676.652344 619.574219 680.839844 C 614.351562 685.023438 609.007812 689.054688 603.546875 692.925781 C 598.089844 696.796875 592.519531 700.503906 586.84375 704.050781 C 581.164062 707.59375 575.386719 710.96875 569.511719 714.175781 C 563.636719 717.378906 557.671875 720.410156 551.617188 723.265625 C 545.5625 726.121094 539.429688 728.796875 533.21875 731.289062 C 527.007812 733.785156 520.730469 736.097656 514.382812 738.222656 Z M 514.382812 738.3125 " fill-opacity="1" fill-rule="evenodd"/></g></svg>