<svg xmlns="http://www.w3.org/2000/svg" xmlns:xlink="http://www.w3.org/1999/xlink" width="500" zoomAndPan="magnify" viewBox="0 0 375 374.999991" height="500" preserveAspectRatio="xMidYMid meet" version="1.0"><path fill="#008ba4" d="M 149.355469 259.644531 L 182.664062 259.644531 L 215.980469 115.457031 L 182.664062 115.457031 Z M 149.355469 259.644531 " fill-opacity="1" fill-rule="nonzero"/><path fill="#008ba4" d="M 117.859375 116.007812 L 46.289062 187.539062 L 46.304688 187.550781 L 46.289062 187.566406 L 117.859375 259.09375 L 139.5625 237.398438 L 89.6875 187.550781 L 139.5625 137.703125 Z M 117.859375 116.007812 " fill-opacity="1" fill-rule="nonzero"/><path fill="#008ba4" d="M 67.996094 165.871094 L 46.304688 187.554688 L 68 209.238281 L 89.691406 187.554688 Z M 67.996094 165.871094 " fill-opacity="1" fill-rule="nonzero"/><path fill="#008ba4" d="M 319.261719 187.539062 L 247.695312 116.007812 L 225.988281 137.703125 L 275.859375 187.550781 L 225.988281 237.398438 L 247.695312 259.09375 L 319.261719 187.566406 L 319.25 187.550781 Z M 319.261719 187.539062 " fill-opacity="1" fill-rule="nonzero"/><path fill="#008ba4" d="M 297.554688 165.867188 L 275.863281 187.550781 L 297.554688 209.234375 L 319.25 187.550781 Z M 297.554688 165.867188 " fill-opacity="1" fill-rule="nonzero"/></svg>