<svg width="240" height="42" viewBox="0 0 240 42" fill="none" xmlns="http://www.w3.org/2000/svg">
<g clip-path="url(#clip0_2106_54660)">
<path d="M16.3574 32.0983H21.4828L26.6082 9.90164H21.4828L16.3574 32.0983Z" fill="#075FE4"/>
<path d="M11.5113 9.98671L0.5 20.9981L0.50205 21.0001L0.5 21.0022L11.5113 32.0135L14.851 28.6738L7.17734 21.0001L14.851 13.3264L11.5113 9.98671Z" fill="#075FE4"/>
<path d="M3.83977 17.6627L0.501953 21.0007L3.83989 24.3385L7.1777 21.0005L3.83977 17.6627Z" fill="#075FE4"/>
<path d="M42.4995 20.998L31.4881 9.98668L28.1484 13.3264L35.8221 21.0001L28.1484 28.6738L31.4881 32.0135L42.4995 21.0021L42.4974 21.0001L42.4995 20.998Z" fill="#075FE4"/>
<path d="M39.1601 17.662L35.8223 20.9999L39.1602 24.3377L42.498 20.9998L39.1601 17.662Z" fill="#075FE4"/>
<path d="M54.676 32V9.6H62.324C64.948 9.6 67.1027 10.0693 68.788 11.008C70.4947 11.9253 71.7533 13.2267 72.564 14.912C73.396 16.576 73.812 18.5387 73.812 20.8C73.812 23.0613 73.396 25.0347 72.564 26.72C71.7533 28.384 70.4947 29.6853 68.788 30.624C67.1027 31.5413 64.948 32 62.324 32H54.676ZM58.772 28.48H62.132C64.0093 28.48 65.492 28.1813 66.58 27.584C67.668 26.9653 68.4467 26.0907 68.916 24.96C69.3853 23.808 69.62 22.4213 69.62 20.8C69.62 19.2 69.3853 17.824 68.916 16.672C68.4467 15.52 67.668 14.6347 66.58 14.016C65.492 13.3973 64.0093 13.088 62.132 13.088H58.772V28.48ZM85.042 32.384C83.442 32.384 82.0233 32.0427 80.786 31.36C79.5487 30.6773 78.578 29.7173 77.874 28.48C77.17 27.2427 76.818 25.8133 76.818 24.192C76.818 22.5493 77.1593 21.088 77.842 19.808C78.546 18.528 79.506 17.536 80.722 16.832C81.9593 16.1067 83.41 15.744 85.074 15.744C86.6313 15.744 88.0073 16.0853 89.202 16.768C90.3967 17.4507 91.3247 18.3893 91.986 19.584C92.6687 20.7573 93.01 22.0693 93.01 23.52C93.01 23.7547 92.9993 24 92.978 24.256C92.978 24.512 92.9673 24.7787 92.946 25.056H80.882C80.9673 26.2933 81.394 27.264 82.162 27.968C82.9513 28.672 83.9007 29.024 85.01 29.024C85.842 29.024 86.5353 28.8427 87.09 28.48C87.666 28.096 88.0927 27.6053 88.37 27.008H92.53C92.2313 28.0107 91.73 28.928 91.026 29.76C90.3433 30.5707 89.49 31.2107 88.466 31.68C87.4633 32.1493 86.322 32.384 85.042 32.384ZM85.074 19.072C84.0713 19.072 83.186 19.36 82.418 19.936C81.65 20.4907 81.1593 21.344 80.946 22.496H88.85C88.786 21.4507 88.402 20.6187 87.698 20C86.994 19.3813 86.1193 19.072 85.074 19.072ZM100.118 32L94.294 16.128H98.582L102.614 28.128L106.646 16.128H110.934L105.078 32H100.118ZM120.448 32.384C118.848 32.384 117.43 32.0427 116.192 31.36C114.955 30.6773 113.984 29.7173 113.28 28.48C112.576 27.2427 112.224 25.8133 112.224 24.192C112.224 22.5493 112.566 21.088 113.248 19.808C113.952 18.528 114.912 17.536 116.128 16.832C117.366 16.1067 118.816 15.744 120.48 15.744C122.038 15.744 123.414 16.0853 124.608 16.768C125.803 17.4507 126.731 18.3893 127.392 19.584C128.075 20.7573 128.416 22.0693 128.416 23.52C128.416 23.7547 128.406 24 128.384 24.256C128.384 24.512 128.374 24.7787 128.352 25.056H116.288C116.374 26.2933 116.8 27.264 117.568 27.968C118.358 28.672 119.307 29.024 120.416 29.024C121.248 29.024 121.942 28.8427 122.496 28.48C123.072 28.096 123.499 27.6053 123.776 27.008H127.936C127.638 28.0107 127.136 28.928 126.432 29.76C125.75 30.5707 124.896 31.2107 123.872 31.68C122.87 32.1493 121.728 32.384 120.448 32.384ZM120.48 19.072C119.478 19.072 118.592 19.36 117.824 19.936C117.056 20.4907 116.566 21.344 116.352 22.496H124.256C124.192 21.4507 123.808 20.6187 123.104 20C122.4 19.3813 121.526 19.072 120.48 19.072ZM131.861 32V8.96H135.957V32H131.861ZM147.759 32.384C146.223 32.384 144.836 32.032 143.599 31.328C142.383 30.624 141.412 29.6533 140.687 28.416C139.983 27.1573 139.631 25.7067 139.631 24.064C139.631 22.4213 139.993 20.9813 140.719 19.744C141.444 18.4853 142.415 17.504 143.631 16.8C144.868 16.096 146.255 15.744 147.791 15.744C149.305 15.744 150.671 16.096 151.887 16.8C153.124 17.504 154.095 18.4853 154.799 19.744C155.524 20.9813 155.887 22.4213 155.887 24.064C155.887 25.7067 155.524 27.1573 154.799 28.416C154.095 29.6533 153.124 30.624 151.887 31.328C150.649 32.032 149.273 32.384 147.759 32.384ZM147.759 28.832C148.825 28.832 149.753 28.4373 150.543 27.648C151.332 26.8373 151.727 25.6427 151.727 24.064C151.727 22.4853 151.332 21.3013 150.543 20.512C149.753 19.7013 148.836 19.296 147.791 19.296C146.703 19.296 145.764 19.7013 144.975 20.512C144.207 21.3013 143.823 22.4853 143.823 24.064C143.823 25.6427 144.207 26.8373 144.975 27.648C145.764 28.4373 146.692 28.832 147.759 28.832ZM159.549 39.04V16.128H163.197L163.645 18.4C164.157 17.696 164.829 17.0773 165.661 16.544C166.514 16.0107 167.613 15.744 168.957 15.744C170.45 15.744 171.783 16.1067 172.957 16.832C174.13 17.5573 175.058 18.5493 175.741 19.808C176.423 21.0667 176.765 22.496 176.765 24.096C176.765 25.696 176.423 27.1253 175.741 28.384C175.058 29.6213 174.13 30.6027 172.957 31.328C171.783 32.032 170.45 32.384 168.957 32.384C167.762 32.384 166.717 32.16 165.821 31.712C164.925 31.264 164.199 30.6347 163.645 29.824V39.04H159.549ZM168.093 28.8C169.394 28.8 170.471 28.3627 171.325 27.488C172.178 26.6133 172.605 25.4827 172.605 24.096C172.605 22.7093 172.178 21.568 171.325 20.672C170.471 19.776 169.394 19.328 168.093 19.328C166.77 19.328 165.682 19.776 164.829 20.672C163.997 21.5467 163.581 22.6773 163.581 24.064C163.581 25.4507 163.997 26.592 164.829 27.488C165.682 28.3627 166.77 28.8 168.093 28.8ZM188.136 32.384C186.536 32.384 185.117 32.0427 183.88 31.36C182.642 30.6773 181.672 29.7173 180.968 28.48C180.264 27.2427 179.912 25.8133 179.912 24.192C179.912 22.5493 180.253 21.088 180.936 19.808C181.64 18.528 182.6 17.536 183.816 16.832C185.053 16.1067 186.504 15.744 188.168 15.744C189.725 15.744 191.101 16.0853 192.296 16.768C193.49 17.4507 194.418 18.3893 195.08 19.584C195.762 20.7573 196.104 22.0693 196.104 23.52C196.104 23.7547 196.093 24 196.072 24.256C196.072 24.512 196.061 24.7787 196.04 25.056H183.976C184.061 26.2933 184.488 27.264 185.256 27.968C186.045 28.672 186.994 29.024 188.104 29.024C188.936 29.024 189.629 28.8427 190.184 28.48C190.76 28.096 191.186 27.6053 191.464 27.008H195.624C195.325 28.0107 194.824 28.928 194.12 29.76C193.437 30.5707 192.584 31.2107 191.56 31.68C190.557 32.1493 189.416 32.384 188.136 32.384ZM188.168 19.072C187.165 19.072 186.28 19.36 185.512 19.936C184.744 20.4907 184.253 21.344 184.04 22.496H191.944C191.88 21.4507 191.496 20.6187 190.792 20C190.088 19.3813 189.213 19.072 188.168 19.072ZM199.549 32V16.128H203.197L203.581 19.104C204.157 18.08 204.935 17.2693 205.917 16.672C206.919 16.0533 208.093 15.744 209.437 15.744V20.064H208.285C207.389 20.064 206.589 20.2027 205.885 20.48C205.181 20.7573 204.626 21.2373 204.221 21.92C203.837 22.6027 203.645 23.552 203.645 24.768V32H199.549ZM218.869 32L225.877 20.672L218.773 9.6H223.477L228.501 17.408L233.109 9.6H237.717L230.709 20.864L237.877 32H233.173L228.085 24.096L223.477 32H218.869Z" fill="white"/>
</g>
<defs>
<clipPath id="clip0_2106_54660">
<rect width="240" height="42" fill="white"/>
</clipPath>
</defs>
</svg>
