<svg xmlns="http://www.w3.org/2000/svg" xmlns:xlink="http://www.w3.org/1999/xlink" width="1080" zoomAndPan="magnify" viewBox="0 0 810 809.999993" height="1080" preserveAspectRatio="xMidYMid meet" version="1.0"><defs><clipPath id="4c5fe5de64"><path d="M 10.269531 10.269531 L 800.019531 10.269531 L 800.019531 800.019531 L 10.269531 800.019531 Z M 10.269531 10.269531 " clip-rule="nonzero"/></clipPath></defs><g clip-path="url(#4c5fe5de64)"><path fill="#008ba4" d="M 405.324219 10.269531 C 398.859375 10.269531 392.398438 10.429688 385.9375 10.746094 C 379.480469 11.0625 373.035156 11.539062 366.601562 12.171875 C 360.167969 12.804688 353.753906 13.597656 347.359375 14.546875 C 340.960938 15.496094 334.59375 16.601562 328.253906 17.859375 C 321.910156 19.121094 315.605469 20.539062 309.335938 22.109375 C 303.0625 23.679688 296.832031 25.40625 290.644531 27.28125 C 284.460938 29.15625 278.320312 31.1875 272.234375 33.363281 C 266.148438 35.542969 260.117188 37.867188 254.144531 40.34375 C 248.171875 42.816406 242.261719 45.433594 236.417969 48.199219 C 230.574219 50.964844 224.800781 53.871094 219.097656 56.917969 C 213.394531 59.964844 207.773438 63.152344 202.226562 66.476562 C 196.679688 69.800781 191.21875 73.257812 185.84375 76.847656 C 180.46875 80.441406 175.183594 84.164062 169.992188 88.015625 C 164.800781 91.863281 159.703125 95.839844 154.707031 99.941406 C 149.707031 104.042969 144.8125 108.265625 140.023438 112.609375 C 135.234375 116.949219 130.550781 121.40625 125.980469 125.980469 C 121.410156 130.550781 116.953125 135.230469 112.609375 140.023438 C 108.269531 144.8125 104.046875 149.707031 99.945312 154.703125 C 95.84375 159.703125 91.867188 164.796875 88.015625 169.992188 C 84.164062 175.183594 80.441406 180.46875 76.851562 185.84375 C 73.257812 191.21875 69.800781 196.679688 66.476562 202.226562 C 63.152344 207.769531 59.96875 213.394531 56.917969 219.097656 C 53.871094 224.796875 50.964844 230.570312 48.203125 236.417969 C 45.4375 242.261719 42.816406 248.167969 40.34375 254.144531 C 37.871094 260.117188 35.542969 266.144531 33.367188 272.234375 C 31.1875 278.320312 29.160156 284.457031 27.28125 290.644531 C 25.40625 296.832031 23.683594 303.0625 22.113281 309.332031 C 20.539062 315.605469 19.125 321.910156 17.863281 328.25 C 16.601562 334.59375 15.496094 340.960938 14.546875 347.355469 C 13.597656 353.75 12.808594 360.167969 12.175781 366.601562 C 11.539062 373.035156 11.066406 379.480469 10.75 385.9375 C 10.429688 392.394531 10.273438 398.855469 10.273438 405.324219 C 10.273438 411.789062 10.429688 418.25 10.75 424.707031 C 11.066406 431.164062 11.539062 437.609375 12.175781 444.042969 C 12.808594 450.480469 13.601562 456.894531 14.546875 463.289062 C 15.496094 469.683594 16.601562 476.050781 17.863281 482.394531 C 19.125 488.734375 20.539062 495.039062 22.113281 501.3125 C 23.683594 507.582031 25.40625 513.8125 27.285156 520 C 29.160156 526.1875 31.1875 532.324219 33.367188 538.410156 C 35.542969 544.5 37.871094 550.527344 40.34375 556.503906 C 42.816406 562.476562 45.4375 568.382812 48.203125 574.230469 C 50.964844 580.074219 53.871094 585.847656 56.917969 591.550781 C 59.96875 597.25 63.152344 602.875 66.476562 608.417969 C 69.800781 613.964844 73.257812 619.425781 76.851562 624.800781 C 80.441406 630.175781 84.164062 635.460938 88.015625 640.65625 C 91.867188 645.847656 95.84375 650.941406 99.945312 655.941406 C 104.046875 660.9375 108.269531 665.832031 112.609375 670.625 C 116.953125 675.414062 121.410156 680.09375 125.980469 684.667969 C 130.550781 689.238281 135.234375 693.695312 140.023438 698.035156 C 144.8125 702.378906 149.707031 706.601562 154.707031 710.703125 C 159.703125 714.804688 164.800781 718.78125 169.992188 722.632812 C 175.183594 726.484375 180.46875 730.203125 185.84375 733.796875 C 191.222656 737.386719 196.683594 740.847656 202.226562 744.171875 C 207.773438 747.492188 213.394531 750.679688 219.097656 753.726562 C 224.800781 756.773438 230.574219 759.679688 236.417969 762.445312 C 242.261719 765.210938 248.171875 767.828125 254.144531 770.304688 C 260.117188 772.777344 266.148438 775.101562 272.234375 777.28125 C 278.324219 779.460938 284.460938 781.488281 290.648438 783.363281 C 296.832031 785.242188 303.0625 786.964844 309.335938 788.535156 C 315.605469 790.105469 321.914062 791.523438 328.253906 792.785156 C 334.59375 794.046875 340.964844 795.148438 347.359375 796.097656 C 353.753906 797.046875 360.167969 797.839844 366.601562 798.472656 C 373.035156 799.105469 379.484375 799.582031 385.941406 799.898438 C 392.398438 800.214844 398.859375 800.375 405.324219 800.375 C 411.789062 800.375 418.25 800.214844 424.707031 799.898438 C 431.167969 799.582031 437.613281 799.105469 444.046875 798.472656 C 450.480469 797.839844 456.894531 797.046875 463.289062 796.097656 C 469.6875 795.148438 476.054688 794.046875 482.394531 792.785156 C 488.738281 791.523438 495.042969 790.105469 501.3125 788.535156 C 507.585938 786.964844 513.816406 785.242188 520.003906 783.363281 C 526.1875 781.488281 532.328125 779.460938 538.414062 777.28125 C 544.5 775.101562 550.53125 772.777344 556.503906 770.304688 C 562.476562 767.828125 568.386719 765.210938 574.230469 762.445312 C 580.074219 759.679688 585.847656 756.773438 591.550781 753.726562 C 597.253906 750.679688 602.875 747.492188 608.421875 744.171875 C 613.96875 740.847656 619.429688 737.386719 624.804688 733.796875 C 630.179688 730.203125 635.464844 726.484375 640.65625 722.632812 C 645.851562 718.78125 650.945312 714.804688 655.941406 710.703125 C 660.941406 706.601562 665.835938 702.378906 670.625 698.035156 C 675.414062 693.695312 680.097656 689.238281 684.667969 684.667969 C 689.238281 680.09375 693.695312 675.414062 698.039062 670.625 C 702.378906 665.832031 706.601562 660.9375 710.703125 655.941406 C 714.804688 650.941406 718.78125 645.847656 722.632812 640.65625 C 726.484375 635.460938 730.207031 630.175781 733.796875 624.800781 C 737.390625 619.425781 740.847656 613.964844 744.171875 608.417969 C 747.496094 602.875 750.679688 597.25 753.730469 591.546875 C 756.777344 585.847656 759.683594 580.074219 762.449219 574.230469 C 765.210938 568.382812 767.832031 562.476562 770.304688 556.503906 C 772.777344 550.527344 775.105469 544.5 777.285156 538.410156 C 779.460938 532.324219 781.488281 526.1875 783.367188 520 C 785.242188 513.8125 786.964844 507.582031 788.539062 501.3125 C 790.109375 495.039062 791.523438 488.734375 792.785156 482.394531 C 794.046875 476.050781 795.152344 469.683594 796.101562 463.289062 C 797.050781 456.894531 797.839844 450.480469 798.472656 444.042969 C 799.109375 437.609375 799.582031 431.164062 799.902344 424.707031 C 800.21875 418.25 800.375 411.789062 800.375 405.324219 C 800.378906 398.855469 800.21875 392.394531 799.90625 385.9375 C 799.589844 379.480469 799.113281 373.03125 798.480469 366.597656 C 797.847656 360.164062 797.058594 353.75 796.109375 347.351562 C 795.164062 340.957031 794.058594 334.585938 792.800781 328.246094 C 791.539062 321.90625 790.125 315.597656 788.554688 309.324219 C 786.984375 303.054688 785.257812 296.824219 783.382812 290.636719 C 781.507812 284.449219 779.480469 278.3125 777.304688 272.222656 C 775.125 266.136719 772.800781 260.105469 770.324219 254.128906 C 767.851562 248.15625 765.234375 242.246094 762.46875 236.402344 C 759.707031 230.558594 756.800781 224.78125 753.753906 219.082031 C 750.707031 213.378906 747.519531 207.753906 744.195312 202.207031 C 740.871094 196.660156 737.414062 191.199219 733.824219 185.824219 C 730.230469 180.449219 726.507812 175.164062 722.65625 169.96875 C 718.804688 164.777344 714.828125 159.679688 710.726562 154.683594 C 706.625 149.683594 702.40625 144.789062 698.0625 140 C 693.71875 135.207031 689.261719 130.527344 684.691406 125.957031 C 680.121094 121.382812 675.4375 116.925781 670.648438 112.585938 C 665.855469 108.242188 660.960938 104.019531 655.964844 99.917969 C 650.964844 95.816406 645.871094 91.839844 640.675781 87.988281 C 635.484375 84.136719 630.199219 80.417969 624.820312 76.824219 C 619.445312 73.230469 613.984375 69.773438 608.4375 66.449219 C 602.890625 63.128906 597.269531 59.941406 591.566406 56.894531 C 585.863281 53.847656 580.089844 50.941406 574.246094 48.175781 C 568.398438 45.414062 562.488281 42.792969 556.515625 40.320312 C 550.542969 37.847656 544.511719 35.519531 538.421875 33.34375 C 532.335938 31.167969 526.199219 29.140625 520.011719 27.261719 C 513.824219 25.386719 507.59375 23.664062 501.320312 22.09375 C 495.046875 20.523438 488.742188 19.109375 482.398438 17.847656 C 476.058594 16.585938 469.691406 15.484375 463.292969 14.535156 C 456.898438 13.589844 450.484375 12.796875 444.046875 12.164062 C 437.613281 11.53125 431.167969 11.058594 424.710938 10.742188 C 418.25 10.425781 411.789062 10.269531 405.324219 10.269531 Z M 615.597656 418.425781 L 307.136719 591.339844 C 306.570312 591.65625 305.980469 591.933594 305.378906 592.171875 C 304.773438 592.414062 304.15625 592.613281 303.523438 592.773438 C 302.894531 592.933594 302.253906 593.050781 301.609375 593.128906 C 300.960938 593.203125 300.3125 593.238281 299.664062 593.230469 C 299.011719 593.222656 298.367188 593.175781 297.722656 593.082031 C 297.078125 592.992188 296.441406 592.859375 295.816406 592.683594 C 295.1875 592.507812 294.574219 592.292969 293.976562 592.039062 C 293.378906 591.785156 292.796875 591.496094 292.234375 591.164062 C 291.675781 590.835938 291.136719 590.472656 290.625 590.070312 C 290.109375 589.671875 289.625 589.242188 289.167969 588.777344 C 288.710938 588.316406 288.285156 587.824219 287.890625 587.308594 C 287.496094 586.789062 287.136719 586.25 286.8125 585.683594 C 286.488281 585.121094 286.203125 584.535156 285.957031 583.933594 C 285.707031 583.332031 285.5 582.71875 285.332031 582.089844 C 285.164062 581.460938 285.039062 580.824219 284.953125 580.179688 C 284.871094 579.535156 284.828125 578.886719 284.824219 578.234375 L 284.824219 232.410156 C 284.828125 231.757812 284.871094 231.109375 284.953125 230.464844 C 285.039062 229.820312 285.164062 229.183594 285.332031 228.554688 C 285.5 227.925781 285.707031 227.3125 285.957031 226.710938 C 286.203125 226.109375 286.488281 225.523438 286.8125 224.960938 C 287.136719 224.394531 287.496094 223.855469 287.890625 223.335938 C 288.285156 222.820312 288.710938 222.328125 289.167969 221.867188 C 289.625 221.402344 290.109375 220.972656 290.625 220.574219 C 291.136719 220.175781 291.675781 219.808594 292.234375 219.480469 C 292.796875 219.152344 293.378906 218.859375 293.976562 218.605469 C 294.574219 218.351562 295.1875 218.136719 295.816406 217.960938 C 296.441406 217.789062 297.078125 217.65625 297.722656 217.5625 C 298.367188 217.472656 299.011719 217.421875 299.664062 217.414062 C 300.3125 217.40625 300.960938 217.441406 301.609375 217.515625 C 302.253906 217.59375 302.894531 217.710938 303.523438 217.871094 C 304.15625 218.03125 304.773438 218.230469 305.378906 218.472656 C 305.980469 218.710938 306.570312 218.988281 307.136719 219.304688 L 615.597656 392.21875 C 616.757812 392.875 617.8125 393.671875 618.757812 394.609375 C 619.707031 395.546875 620.515625 396.589844 621.1875 397.738281 C 621.855469 398.890625 622.367188 400.109375 622.714844 401.394531 C 623.0625 402.679688 623.234375 403.992188 623.234375 405.324219 C 623.234375 406.65625 623.0625 407.964844 622.714844 409.25 C 622.367188 410.535156 621.855469 411.753906 621.1875 412.90625 C 620.515625 414.054688 619.707031 415.101562 618.757812 416.035156 C 617.8125 416.972656 616.757812 417.769531 615.597656 418.425781 Z M 615.597656 418.425781 " fill-opacity="1" fill-rule="nonzero"/></g></svg>