<svg xmlns="http://www.w3.org/2000/svg" xmlns:xlink="http://www.w3.org/1999/xlink" width="500" zoomAndPan="magnify" viewBox="0 0 375 374.999991" height="500" preserveAspectRatio="xMidYMid meet" version="1.0"><defs><clipPath id="d2893389dd"><path d="M 76.496094 88 L 298.496094 88 L 298.496094 286 L 76.496094 286 Z M 76.496094 88 " clip-rule="nonzero"/></clipPath></defs><g clip-path="url(#d2893389dd)"><path fill="#008ba4" d="M 258.9375 152.742188 C 256.644531 151.953125 254.261719 151.203125 251.800781 150.496094 C 252.207031 148.847656 252.582031 147.226562 252.910156 145.628906 C 258.308594 119.417969 254.78125 98.300781 242.714844 91.347656 C 231.144531 84.679688 212.226562 91.632812 193.117188 108.25 C 191.28125 109.847656 189.4375 111.539062 187.601562 113.3125 C 186.371094 112.140625 185.148438 111.003906 183.929688 109.921875 C 163.902344 92.152344 143.832031 84.664062 131.777344 91.636719 C 120.222656 98.324219 116.800781 118.175781 121.664062 143.015625 C 122.132812 145.417969 122.683594 147.867188 123.304688 150.359375 C 120.460938 151.164062 117.71875 152.023438 115.097656 152.9375 C 91.621094 161.117188 76.628906 173.9375 76.628906 187.234375 C 76.628906 200.964844 92.722656 214.746094 117.175781 223.097656 C 119.105469 223.753906 121.105469 224.378906 123.167969 224.96875 C 122.5 227.660156 121.917969 230.300781 121.429688 232.878906 C 116.789062 257.289062 120.414062 276.671875 131.9375 283.3125 C 143.84375 290.175781 163.824219 283.121094 183.277344 266.128906 C 184.820312 264.785156 186.363281 263.359375 187.90625 261.867188 C 189.914062 263.789062 191.914062 265.617188 193.898438 267.332031 C 212.746094 283.535156 231.359375 290.078125 242.871094 283.421875 C 254.765625 276.542969 258.636719 255.714844 253.613281 230.386719 C 253.230469 228.445312 252.78125 226.472656 252.285156 224.464844 C 253.691406 224.050781 255.066406 223.617188 256.410156 223.175781 C 281.832031 214.753906 298.367188 201.152344 298.367188 187.234375 C 298.367188 173.886719 282.886719 160.980469 258.9375 152.742188 Z M 253.429688 214.191406 C 252.21875 214.589844 250.96875 214.976562 249.707031 215.351562 C 246.898438 206.476562 243.113281 197.035156 238.472656 187.277344 C 242.898438 177.757812 246.535156 168.4375 249.265625 159.617188 C 251.535156 160.273438 253.734375 160.964844 255.855469 161.695312 C 276.375 168.753906 288.890625 179.191406 288.890625 187.234375 C 288.890625 195.796875 275.378906 206.917969 253.429688 214.191406 Z M 244.316406 232.222656 C 246.542969 243.421875 246.855469 253.550781 245.382812 261.472656 C 244.066406 268.585938 241.40625 273.328125 238.125 275.226562 C 231.136719 279.269531 216.195312 274.015625 200.082031 260.15625 C 198.230469 258.5625 196.367188 256.867188 194.503906 255.074219 C 200.75 248.242188 206.996094 240.304688 213.09375 231.484375 C 223.808594 230.542969 233.933594 228.984375 243.121094 226.863281 C 243.574219 228.691406 243.972656 230.472656 244.316406 232.222656 Z M 152.226562 274.523438 C 145.398438 276.941406 139.960938 277.007812 136.675781 275.113281 C 129.679688 271.078125 126.773438 255.515625 130.738281 234.644531 C 131.195312 232.257812 131.734375 229.796875 132.359375 227.289062 C 141.441406 229.296875 151.492188 230.742188 162.238281 231.605469 C 168.375 240.238281 174.800781 248.167969 181.273438 255.109375 C 179.859375 256.476562 178.449219 257.773438 177.046875 258.996094 C 168.445312 266.515625 159.824219 271.851562 152.226562 274.523438 Z M 120.242188 214.136719 C 109.429688 210.441406 100.5 205.648438 94.378906 200.402344 C 88.878906 195.699219 86.101562 191.027344 86.101562 187.234375 C 86.101562 179.167969 98.140625 168.871094 118.21875 161.875 C 120.652344 161.027344 123.203125 160.226562 125.851562 159.476562 C 128.625 168.496094 132.265625 177.929688 136.65625 187.460938 C 132.207031 197.136719 128.515625 206.71875 125.714844 215.851562 C 123.828125 215.308594 122 214.734375 120.242188 214.136719 Z M 130.964844 141.199219 C 126.796875 119.914062 129.5625 103.859375 136.527344 99.832031 C 143.945312 95.539062 160.351562 101.65625 177.636719 117 C 178.742188 117.980469 179.851562 119.007812 180.96875 120.070312 C 174.527344 126.984375 168.160156 134.851562 162.078125 143.429688 C 151.648438 144.394531 141.664062 145.949219 132.488281 148.027344 C 131.910156 145.707031 131.398438 143.425781 130.964844 141.199219 Z M 226.605469 164.800781 C 224.414062 161.015625 222.164062 157.316406 219.867188 153.71875 C 226.945312 154.613281 233.71875 155.800781 240.082031 157.25 C 238.179688 163.371094 235.796875 169.773438 232.988281 176.335938 C 230.980469 172.515625 228.847656 168.667969 226.605469 164.800781 Z M 187.601562 126.835938 C 191.976562 131.566406 196.351562 136.847656 200.65625 142.578125 C 196.316406 142.371094 191.925781 142.265625 187.5 142.265625 C 183.117188 142.265625 178.757812 142.371094 174.445312 142.570312 C 178.75 136.894531 183.167969 131.621094 187.601562 126.835938 Z M 148.347656 164.867188 C 146.15625 168.664062 144.070312 172.492188 142.089844 176.328125 C 139.332031 169.789062 136.972656 163.359375 135.042969 157.152344 C 141.371094 155.738281 148.117188 154.578125 155.148438 153.703125 C 152.816406 157.332031 150.546875 161.058594 148.347656 164.867188 Z M 155.347656 221.4375 C 148.085938 220.628906 141.238281 219.53125 134.914062 218.15625 C 136.871094 211.835938 139.28125 205.273438 142.101562 198.589844 C 144.085938 202.425781 146.179688 206.253906 148.386719 210.0625 C 150.632812 213.9375 152.960938 217.730469 155.347656 221.4375 Z M 187.863281 248.296875 C 183.375 243.457031 178.898438 238.097656 174.523438 232.34375 C 178.765625 232.507812 183.097656 232.59375 187.5 232.59375 C 192.019531 232.59375 196.488281 232.488281 200.878906 232.300781 C 196.566406 238.160156 192.203125 243.527344 187.863281 248.296875 Z M 233.074219 198.253906 C 236.039062 205.007812 238.542969 211.53125 240.523438 217.746094 C 234.097656 219.210938 227.152344 220.386719 219.839844 221.269531 C 222.144531 217.625 224.414062 213.863281 226.648438 209.992188 C 228.910156 206.078125 231.050781 202.15625 233.074219 198.253906 Z M 218.4375 205.265625 C 214.972656 211.273438 211.414062 217.003906 207.800781 222.414062 C 201.226562 222.882812 194.425781 223.125 187.5 223.125 C 180.59375 223.125 173.882812 222.914062 167.421875 222.492188 C 163.660156 217.011719 160.027344 211.265625 156.582031 205.316406 L 156.585938 205.316406 C 153.148438 199.386719 149.988281 193.40625 147.125 187.460938 C 149.988281 181.503906 153.140625 175.515625 156.554688 169.597656 C 159.980469 163.664062 163.582031 157.941406 167.308594 152.492188 C 173.898438 151.992188 180.664062 151.734375 187.5 151.734375 C 194.367188 151.734375 201.132812 151.996094 207.722656 152.496094 C 211.394531 157.90625 214.972656 163.609375 218.410156 169.546875 C 221.886719 175.546875 225.082031 181.496094 227.964844 187.328125 C 225.089844 193.257812 221.902344 199.265625 218.4375 205.265625 Z M 237.980469 99.546875 C 245.410156 103.828125 248.292969 121.085938 243.625 143.714844 C 243.332031 145.160156 242.992188 146.628906 242.628906 148.121094 C 233.429688 146 223.445312 144.421875 212.988281 143.441406 C 206.890625 134.769531 200.578125 126.886719 194.238281 120.0625 C 195.941406 118.425781 197.648438 116.863281 199.339844 115.386719 C 215.710938 101.152344 231.015625 95.527344 237.980469 99.546875 Z M 187.5 167.441406 C 198.429688 167.441406 207.296875 176.300781 207.296875 187.230469 C 207.296875 198.15625 198.429688 207.019531 187.5 207.019531 C 176.566406 207.019531 167.699219 198.15625 167.699219 187.230469 C 167.699219 176.300781 176.566406 167.441406 187.5 167.441406 Z M 187.5 167.441406 " fill-opacity="1" fill-rule="nonzero"/></g></svg>