<svg xmlns="http://www.w3.org/2000/svg" xmlns:xlink="http://www.w3.org/1999/xlink" width="500" zoomAndPan="magnify" viewBox="0 0 375 374.999991" height="500" preserveAspectRatio="xMidYMid meet" version="1.0"><defs><clipPath id="d03d197a74"><path d="M 82.457031 261 L 283 261 L 283 302 L 82.457031 302 Z M 82.457031 261 " clip-rule="nonzero"/></clipPath></defs><path fill="#018fa8" d="M 182.445312 209.664062 C 169.066406 209.664062 102.386719 208.78125 102.386719 191.371094 C 102.386719 173.960938 169.066406 173.058594 182.445312 173.058594 C 182.757812 173.058594 183.070312 173.089844 183.378906 173.152344 C 183.6875 173.210938 183.988281 173.304688 184.28125 173.425781 C 184.570312 173.542969 184.847656 173.691406 185.109375 173.867188 C 185.371094 174.042969 185.613281 174.242188 185.835938 174.464844 C 186.058594 174.6875 186.257812 174.929688 186.433594 175.191406 C 186.605469 175.453125 186.753906 175.730469 186.875 176.019531 C 186.996094 176.3125 187.085938 176.609375 187.148438 176.917969 C 187.210938 177.226562 187.242188 177.539062 187.242188 177.855469 C 187.242188 178.171875 187.210938 178.480469 187.148438 178.789062 C 187.085938 179.101562 186.996094 179.398438 186.875 179.691406 C 186.753906 179.980469 186.605469 180.257812 186.433594 180.519531 C 186.257812 180.78125 186.058594 181.023438 185.835938 181.246094 C 185.613281 181.46875 185.371094 181.667969 185.109375 181.84375 C 184.847656 182.019531 184.570312 182.164062 184.28125 182.285156 C 183.988281 182.40625 183.6875 182.496094 183.378906 182.558594 C 183.070312 182.621094 182.757812 182.652344 182.445312 182.652344 C 142.707031 182.652344 119.203125 187.902344 113.078125 191.371094 C 119.203125 194.808594 142.707031 200.082031 182.445312 200.082031 C 225.5 200.082031 249.523438 193.898438 253.011719 190.550781 C 253.101562 189.992188 253.289062 189.46875 253.570312 188.976562 C 253.847656 188.488281 254.207031 188.0625 254.636719 187.699219 C 255.070312 187.335938 255.550781 187.058594 256.082031 186.867188 C 256.613281 186.675781 257.164062 186.582031 257.726562 186.585938 C 258.042969 186.585938 258.355469 186.617188 258.664062 186.679688 C 258.972656 186.742188 259.273438 186.832031 259.5625 186.953125 C 259.855469 187.074219 260.128906 187.222656 260.390625 187.398438 C 260.652344 187.574219 260.894531 187.773438 261.117188 187.996094 C 261.339844 188.21875 261.539062 188.460938 261.714844 188.722656 C 261.890625 188.988281 262.039062 189.261719 262.160156 189.554688 C 262.277344 189.847656 262.371094 190.144531 262.429688 190.453125 C 262.492188 190.765625 262.523438 191.078125 262.523438 191.390625 C 262.523438 208.78125 195.8125 209.664062 182.445312 209.664062 Z M 182.445312 209.664062 " fill-opacity="1" fill-rule="nonzero"/><path fill="#018fa8" d="M 182.445312 232.824219 C 166.183594 232.824219 113.136719 231.644531 113.136719 216.453125 C 113.132812 215.863281 113.238281 215.292969 113.445312 214.742188 C 113.652344 214.191406 113.953125 213.695312 114.34375 213.253906 C 114.738281 212.8125 115.195312 212.457031 115.71875 212.183594 C 116.238281 211.914062 116.792969 211.742188 117.378906 211.675781 C 117.964844 211.609375 118.542969 211.648438 119.113281 211.796875 C 119.683594 211.945312 120.210938 212.1875 120.691406 212.527344 C 121.171875 212.871094 121.578125 213.285156 121.902344 213.773438 C 122.230469 214.265625 122.460938 214.796875 122.589844 215.371094 C 126.050781 218.1875 146.660156 223.230469 182.445312 223.230469 C 218.226562 223.230469 238.820312 218.1875 242.296875 215.371094 C 242.429688 214.796875 242.65625 214.261719 242.984375 213.773438 C 243.3125 213.28125 243.71875 212.863281 244.199219 212.523438 C 244.679688 212.179688 245.207031 211.9375 245.78125 211.789062 C 246.351562 211.640625 246.933594 211.601562 247.519531 211.667969 C 248.105469 211.734375 248.660156 211.90625 249.183594 212.175781 C 249.710938 212.449219 250.167969 212.804688 250.558594 213.246094 C 250.953125 213.6875 251.253906 214.1875 251.460938 214.738281 C 251.671875 215.289062 251.773438 215.863281 251.769531 216.453125 C 251.769531 231.644531 198.695312 232.824219 182.445312 232.824219 Z M 182.445312 232.824219 " fill-opacity="1" fill-rule="nonzero"/><path fill="#018fa8" d="M 182.445312 255.992188 C 165.378906 255.992188 125.683594 254.613281 125.683594 241.859375 C 125.679688 241.285156 125.78125 240.730469 125.980469 240.191406 C 126.175781 239.65625 126.464844 239.167969 126.835938 238.730469 C 127.210938 238.296875 127.648438 237.941406 128.148438 237.660156 C 128.652344 237.382812 129.183594 237.199219 129.753906 237.113281 C 130.320312 237.027344 130.882812 237.039062 131.445312 237.15625 C 132.007812 237.269531 132.53125 237.480469 133.019531 237.785156 C 133.503906 238.089844 133.921875 238.46875 134.273438 238.921875 C 134.625 239.375 134.886719 239.875 135.058594 240.421875 C 138.367188 242.652344 154.550781 246.371094 182.445312 246.371094 C 210.339844 246.371094 226.523438 242.625 229.851562 240.421875 C 230.023438 239.878906 230.289062 239.382812 230.640625 238.933594 C 230.992188 238.484375 231.410156 238.109375 231.894531 237.808594 C 232.378906 237.507812 232.902344 237.300781 233.460938 237.183594 C 234.019531 237.070312 234.582031 237.058594 235.148438 237.144531 C 235.710938 237.230469 236.242188 237.410156 236.742188 237.6875 C 237.242188 237.964844 237.679688 238.320312 238.050781 238.75 C 238.425781 239.183594 238.710938 239.667969 238.910156 240.203125 C 239.113281 240.738281 239.214844 241.289062 239.214844 241.859375 C 239.214844 254.613281 199.5 255.992188 182.445312 255.992188 Z M 182.445312 255.992188 " fill-opacity="1" fill-rule="nonzero"/><path fill="#018fa8" d="M 182.445312 276.304688 C 162.269531 276.304688 138.238281 274.246094 138.238281 264.414062 C 138.238281 263.863281 138.328125 263.328125 138.515625 262.808594 C 138.699219 262.289062 138.964844 261.8125 139.3125 261.386719 C 139.660156 260.957031 140.070312 260.601562 140.539062 260.3125 C 141.011719 260.027344 141.515625 259.828125 142.058594 259.714844 C 142.597656 259.601562 143.140625 259.585938 143.6875 259.660156 C 144.234375 259.734375 144.75 259.898438 145.242188 260.152344 C 145.730469 260.40625 146.164062 260.734375 146.539062 261.136719 C 146.917969 261.542969 147.214844 261.996094 147.433594 262.503906 C 158.855469 265.960938 170.527344 267.359375 182.445312 266.695312 C 194.367188 267.359375 206.042969 265.960938 217.472656 262.503906 C 217.695312 261.996094 217.992188 261.542969 218.367188 261.136719 C 218.746094 260.734375 219.175781 260.40625 219.667969 260.152344 C 220.15625 259.898438 220.675781 259.734375 221.222656 259.660156 C 221.769531 259.585938 222.3125 259.601562 222.851562 259.714844 C 223.390625 259.828125 223.894531 260.027344 224.367188 260.3125 C 224.839844 260.601562 225.25 260.957031 225.597656 261.386719 C 225.945312 261.8125 226.210938 262.289062 226.394531 262.808594 C 226.578125 263.328125 226.671875 263.863281 226.671875 264.414062 C 226.671875 274.246094 202.621094 276.304688 182.445312 276.304688 Z M 182.445312 276.304688 " fill-opacity="1" fill-rule="nonzero"/><g clip-path="url(#d03d197a74)"><path fill="#018fa8" d="M 182.445312 301.457031 C 172.179688 301.457031 82.070312 300.84375 82.070312 279.496094 C 82.070312 274.105469 86.035156 267.269531 117.121094 262.136719 L 121.867188 261.351562 L 123.421875 270.828125 L 118.675781 271.589844 C 114.007812 271.894531 109.433594 272.71875 104.949219 274.054688 C 100.46875 275.394531 96.191406 277.214844 92.117188 279.515625 C 97.074219 284.035156 127.1875 291.824219 182.445312 291.824219 C 237.699219 291.824219 267.765625 284.035156 272.789062 279.515625 C 268.714844 277.214844 264.433594 275.398438 259.953125 274.058594 C 255.46875 272.722656 250.890625 271.898438 246.222656 271.589844 L 241.484375 270.816406 L 243.0625 261.351562 L 247.789062 262.136719 C 278.835938 267.257812 282.808594 274.105469 282.808594 279.488281 C 282.808594 300.84375 192.730469 301.457031 182.445312 301.457031 Z M 182.445312 301.457031 " fill-opacity="1" fill-rule="nonzero"/></g><path fill="#018fa8" d="M 267.765625 232.824219 C 267.449219 232.824219 267.136719 232.792969 266.828125 232.730469 C 266.519531 232.667969 266.222656 232.578125 265.929688 232.457031 C 265.640625 232.335938 265.363281 232.191406 265.101562 232.015625 C 264.839844 231.839844 264.597656 231.640625 264.375 231.417969 C 264.152344 231.195312 263.953125 230.953125 263.777344 230.691406 C 263.601562 230.429688 263.453125 230.152344 263.335938 229.863281 C 263.214844 229.570312 263.121094 229.273438 263.0625 228.960938 C 263 228.652344 262.96875 228.34375 262.96875 228.027344 C 262.96875 227.710938 263 227.398438 263.0625 227.089844 C 263.121094 226.78125 263.214844 226.484375 263.335938 226.191406 C 263.453125 225.902344 263.601562 225.625 263.777344 225.363281 C 263.953125 225.101562 264.152344 224.859375 264.375 224.636719 C 264.597656 224.414062 264.839844 224.214844 265.101562 224.039062 C 265.363281 223.863281 265.640625 223.714844 265.929688 223.597656 C 266.222656 223.476562 266.519531 223.382812 266.828125 223.324219 C 267.136719 223.261719 267.449219 223.230469 267.765625 223.230469 C 268.652344 223.230469 269.535156 223.144531 270.40625 222.96875 C 271.277344 222.796875 272.125 222.539062 272.945312 222.199219 C 273.765625 221.859375 274.546875 221.441406 275.285156 220.949219 C 276.023438 220.457031 276.707031 219.894531 277.335938 219.265625 C 277.964844 218.636719 278.527344 217.953125 279.019531 217.214844 C 279.515625 216.476562 279.929688 215.695312 280.269531 214.875 C 280.613281 214.054688 280.867188 213.207031 281.042969 212.335938 C 281.214844 211.464844 281.300781 210.582031 281.300781 209.695312 C 281.300781 208.804688 281.214844 207.925781 281.042969 207.054688 C 280.867188 206.183594 280.613281 205.335938 280.269531 204.515625 C 279.929688 203.691406 279.515625 202.914062 279.019531 202.175781 C 278.527344 201.433594 277.964844 200.75 277.335938 200.121094 C 276.707031 199.496094 276.023438 198.933594 275.285156 198.4375 C 274.546875 197.945312 273.765625 197.527344 272.945312 197.1875 C 272.125 196.847656 271.277344 196.589844 270.40625 196.417969 C 269.535156 196.246094 268.652344 196.15625 267.765625 196.15625 L 257.726562 196.15625 C 257.410156 196.15625 257.101562 196.128906 256.792969 196.066406 C 256.480469 196.003906 256.183594 195.914062 255.890625 195.792969 C 255.601562 195.671875 255.324219 195.523438 255.0625 195.351562 C 254.800781 195.175781 254.558594 194.976562 254.335938 194.753906 C 254.113281 194.53125 253.914062 194.289062 253.738281 194.027344 C 253.5625 193.765625 253.417969 193.488281 253.296875 193.195312 C 253.175781 192.90625 253.085938 192.605469 253.023438 192.296875 C 252.960938 191.988281 252.929688 191.675781 252.929688 191.363281 C 252.929688 191.046875 252.960938 190.734375 253.023438 190.425781 C 253.085938 190.117188 253.175781 189.816406 253.296875 189.527344 C 253.417969 189.234375 253.5625 188.957031 253.738281 188.695312 C 253.914062 188.433594 254.113281 188.191406 254.335938 187.96875 C 254.558594 187.746094 254.800781 187.546875 255.0625 187.375 C 255.324219 187.199219 255.601562 187.050781 255.890625 186.929688 C 256.183594 186.808594 256.480469 186.71875 256.792969 186.65625 C 257.101562 186.597656 257.410156 186.566406 257.726562 186.566406 L 267.765625 186.566406 C 268.523438 186.566406 269.277344 186.601562 270.035156 186.675781 C 270.789062 186.75 271.535156 186.859375 272.28125 187.007812 C 273.023438 187.15625 273.757812 187.339844 274.484375 187.558594 C 275.207031 187.777344 275.921875 188.03125 276.621094 188.320312 C 277.320312 188.609375 278.003906 188.933594 278.675781 189.292969 C 279.34375 189.648438 279.992188 190.035156 280.621094 190.457031 C 281.253906 190.878906 281.859375 191.328125 282.445312 191.808594 C 283.03125 192.289062 283.59375 192.796875 284.128906 193.335938 C 284.667969 193.871094 285.175781 194.429688 285.65625 195.015625 C 286.136719 195.601562 286.585938 196.210938 287.007812 196.839844 C 287.429688 197.46875 287.820312 198.117188 288.175781 198.785156 C 288.535156 199.457031 288.859375 200.140625 289.148438 200.839844 C 289.4375 201.539062 289.691406 202.253906 289.914062 202.976562 C 290.132812 203.703125 290.316406 204.4375 290.464844 205.179688 C 290.613281 205.921875 290.722656 206.671875 290.796875 207.425781 C 290.871094 208.179688 290.910156 208.9375 290.910156 209.695312 C 290.910156 210.453125 290.871094 211.207031 290.796875 211.960938 C 290.722656 212.714844 290.613281 213.464844 290.464844 214.207031 C 290.316406 214.953125 290.132812 215.6875 289.914062 216.410156 C 289.691406 217.136719 289.4375 217.847656 289.148438 218.550781 C 288.859375 219.25 288.535156 219.933594 288.175781 220.601562 C 287.820312 221.269531 287.429688 221.917969 287.007812 222.550781 C 286.585938 223.179688 286.136719 223.785156 285.65625 224.371094 C 285.175781 224.957031 284.667969 225.519531 284.128906 226.054688 C 283.59375 226.589844 283.03125 227.097656 282.445312 227.578125 C 281.859375 228.058594 281.253906 228.511719 280.621094 228.929688 C 279.992188 229.351562 279.34375 229.742188 278.675781 230.097656 C 278.003906 230.453125 277.320312 230.777344 276.621094 231.066406 C 275.921875 231.355469 275.207031 231.613281 274.484375 231.832031 C 273.757812 232.050781 273.023438 232.234375 272.28125 232.382812 C 271.535156 232.527344 270.789062 232.640625 270.035156 232.714844 C 269.277344 232.785156 268.523438 232.824219 267.765625 232.824219 Z M 267.765625 232.824219 " fill-opacity="1" fill-rule="nonzero"/><path fill="#018fa8" d="M 182.464844 132.875 C 181.144531 132.878906 180.011719 132.417969 179.074219 131.488281 C 178.148438 130.5625 177.265625 129.59375 176.433594 128.582031 C 175.601562 127.570312 174.820312 126.523438 174.09375 125.433594 C 173.363281 124.34375 172.691406 123.222656 172.070312 122.070312 C 171.453125 120.914062 170.894531 119.730469 170.390625 118.523438 C 169.886719 117.3125 169.445312 116.082031 169.066406 114.828125 C 168.683594 113.574219 168.367188 112.304688 168.109375 111.019531 C 167.855469 109.734375 167.664062 108.441406 167.535156 107.136719 C 167.40625 105.832031 167.339844 104.527344 167.339844 103.214844 C 167.339844 101.90625 167.40625 100.601562 167.535156 99.296875 C 167.664062 97.992188 167.855469 96.699219 168.109375 95.414062 C 168.367188 94.128906 168.683594 92.859375 169.066406 91.605469 C 169.445312 90.351562 169.886719 89.121094 170.390625 87.910156 C 170.894531 86.703125 171.453125 85.519531 172.070312 84.363281 C 172.691406 83.210938 173.363281 82.089844 174.09375 81 C 174.820312 79.910156 175.601562 78.859375 176.433594 77.847656 C 177.265625 76.835938 178.148438 75.871094 179.074219 74.945312 C 179.300781 74.734375 179.542969 74.550781 179.804688 74.386719 C 180.066406 74.226562 180.339844 74.089844 180.625 73.980469 C 180.914062 73.871094 181.207031 73.789062 181.511719 73.734375 C 181.816406 73.683594 182.121094 73.660156 182.425781 73.664062 C 182.734375 73.671875 183.039062 73.707031 183.339844 73.769531 C 183.640625 73.835938 183.929688 73.925781 184.214844 74.046875 C 184.496094 74.167969 184.765625 74.3125 185.019531 74.484375 C 185.273438 74.65625 185.511719 74.851562 185.730469 75.070312 C 185.945312 75.285156 186.140625 75.523438 186.3125 75.777344 C 186.484375 76.03125 186.628906 76.300781 186.75 76.582031 C 186.871094 76.867188 186.964844 77.160156 187.027344 77.457031 C 187.09375 77.757812 187.125 78.0625 187.132812 78.371094 C 187.136719 78.679688 187.113281 78.984375 187.0625 79.285156 C 187.007812 79.589844 186.925781 79.882812 186.816406 80.171875 C 186.707031 80.457031 186.574219 80.730469 186.410156 80.992188 C 186.246094 81.253906 186.0625 81.496094 185.851562 81.722656 C 185.148438 82.425781 184.480469 83.160156 183.847656 83.929688 C 183.214844 84.699219 182.621094 85.496094 182.066406 86.324219 C 181.511719 87.152344 181 88.003906 180.53125 88.882812 C 180.058594 89.761719 179.632812 90.660156 179.25 91.578125 C 178.871094 92.496094 178.535156 93.433594 178.246094 94.386719 C 177.953125 95.339844 177.710938 96.304688 177.519531 97.28125 C 177.324219 98.257812 177.175781 99.242188 177.078125 100.230469 C 176.980469 101.222656 176.933594 102.214844 176.933594 103.210938 C 176.933594 104.207031 176.980469 105.199219 177.078125 106.191406 C 177.175781 107.183594 177.324219 108.167969 177.519531 109.144531 C 177.710938 110.121094 177.953125 111.082031 178.246094 112.035156 C 178.535156 112.988281 178.871094 113.925781 179.25 114.84375 C 179.632812 115.765625 180.058594 116.664062 180.53125 117.539062 C 181 118.417969 181.511719 119.269531 182.066406 120.097656 C 182.621094 120.925781 183.214844 121.722656 183.847656 122.492188 C 184.480469 123.261719 185.148438 123.996094 185.851562 124.699219 C 186.1875 125.035156 186.46875 125.410156 186.691406 125.828125 C 186.917969 126.246094 187.074219 126.6875 187.167969 127.152344 C 187.261719 127.617188 187.28125 128.085938 187.238281 128.558594 C 187.191406 129.03125 187.078125 129.484375 186.894531 129.921875 C 186.714844 130.359375 186.472656 130.761719 186.171875 131.128906 C 185.871094 131.496094 185.523438 131.808594 185.128906 132.070312 C 184.734375 132.335938 184.308594 132.535156 183.855469 132.671875 C 183.402344 132.808594 182.9375 132.875 182.464844 132.875 Z M 182.464844 132.875 " fill-opacity="1" fill-rule="nonzero"/><path fill="#018fa8" d="M 182.464844 182.652344 C 181.992188 182.648438 181.527344 182.578125 181.078125 182.4375 C 180.625 182.296875 180.203125 182.097656 179.808594 181.832031 C 179.417969 181.570312 179.070312 181.253906 178.773438 180.886719 C 178.472656 180.523438 178.234375 180.121094 178.050781 179.683594 C 177.871094 179.246094 177.757812 178.792969 177.710938 178.324219 C 177.664062 177.851562 177.683594 177.382812 177.777344 176.921875 C 177.867188 176.457031 178.023438 176.015625 178.246094 175.597656 C 178.464844 175.179688 178.742188 174.800781 179.074219 174.464844 C 179.777344 173.761719 180.441406 173.023438 181.070312 172.253906 C 181.703125 171.480469 182.292969 170.683594 182.84375 169.855469 C 183.394531 169.027344 183.902344 168.171875 184.371094 167.296875 C 184.839844 166.417969 185.261719 165.519531 185.640625 164.597656 C 186.019531 163.679688 186.355469 162.742188 186.644531 161.789062 C 186.929688 160.839844 187.171875 159.875 187.363281 158.898438 C 187.558594 157.921875 187.703125 156.941406 187.800781 155.949219 C 187.898438 154.960938 187.945312 153.96875 187.945312 152.972656 C 187.945312 151.976562 187.898438 150.984375 187.800781 149.996094 C 187.703125 149.003906 187.558594 148.023438 187.363281 147.046875 C 187.171875 146.070312 186.929688 145.105469 186.644531 144.152344 C 186.355469 143.203125 186.019531 142.265625 185.640625 141.347656 C 185.261719 140.425781 184.839844 139.527344 184.371094 138.648438 C 183.902344 137.769531 183.394531 136.917969 182.84375 136.089844 C 182.292969 135.261719 181.703125 134.460938 181.070312 133.691406 C 180.441406 132.921875 179.777344 132.183594 179.074219 131.476562 C 178.839844 131.257812 178.625 131.019531 178.4375 130.757812 C 178.25 130.496094 178.089844 130.214844 177.960938 129.921875 C 177.828125 129.628906 177.726562 129.324219 177.65625 129.007812 C 177.585938 128.691406 177.546875 128.375 177.542969 128.050781 C 177.535156 127.730469 177.5625 127.410156 177.621094 127.09375 C 177.679688 126.777344 177.769531 126.46875 177.890625 126.167969 C 178.007812 125.871094 178.160156 125.585938 178.335938 125.316406 C 178.515625 125.046875 178.71875 124.800781 178.945312 124.570312 C 179.171875 124.34375 179.421875 124.140625 179.691406 123.960938 C 179.960938 123.785156 180.246094 123.636719 180.542969 123.515625 C 180.84375 123.394531 181.152344 123.304688 181.46875 123.246094 C 181.785156 123.1875 182.105469 123.160156 182.425781 123.167969 C 182.75 123.171875 183.066406 123.210938 183.382812 123.28125 C 183.699219 123.351562 184 123.453125 184.296875 123.585938 C 184.589844 123.714844 184.867188 123.875 185.132812 124.0625 C 185.394531 124.25 185.632812 124.464844 185.851562 124.699219 C 186.777344 125.625 187.65625 126.597656 188.484375 127.609375 C 189.3125 128.621094 190.089844 129.671875 190.816406 130.761719 C 191.542969 131.847656 192.214844 132.972656 192.832031 134.125 C 193.449219 135.28125 194.007812 136.464844 194.507812 137.671875 C 195.007812 138.882812 195.445312 140.113281 195.828125 141.367188 C 196.207031 142.617188 196.523438 143.886719 196.777344 145.171875 C 197.035156 146.453125 197.226562 147.746094 197.351562 149.050781 C 197.480469 150.351562 197.546875 151.660156 197.546875 152.96875 C 197.546875 154.277344 197.480469 155.582031 197.351562 156.882812 C 197.226562 158.1875 197.035156 159.480469 196.777344 160.765625 C 196.523438 162.046875 196.207031 163.316406 195.828125 164.570312 C 195.445312 165.820312 195.007812 167.050781 194.507812 168.261719 C 194.007812 169.472656 193.449219 170.652344 192.832031 171.808594 C 192.214844 172.964844 191.542969 174.085938 190.816406 175.171875 C 190.089844 176.261719 189.3125 177.3125 188.484375 178.324219 C 187.65625 179.339844 186.777344 180.308594 185.851562 181.234375 C 185.40625 181.6875 184.886719 182.035156 184.300781 182.28125 C 183.710938 182.527344 183.101562 182.648438 182.464844 182.652344 Z M 182.464844 182.652344 " fill-opacity="1" fill-rule="nonzero"/><path fill="#018fa8" d="M 216.78125 138.632812 C 216.144531 138.636719 215.535156 138.515625 214.945312 138.273438 C 214.359375 138.03125 213.839844 137.683594 213.390625 137.234375 C 212.671875 136.515625 211.984375 135.761719 211.339844 134.972656 C 210.691406 134.1875 210.082031 133.371094 209.515625 132.523438 C 208.949219 131.675781 208.425781 130.800781 207.945312 129.902344 C 207.460938 129.003906 207.027344 128.085938 206.636719 127.144531 C 206.246094 126.203125 205.902344 125.242188 205.605469 124.265625 C 205.308594 123.292969 205.0625 122.304688 204.863281 121.304688 C 204.664062 120.304688 204.515625 119.296875 204.414062 118.28125 C 204.3125 117.269531 204.265625 116.25 204.265625 115.230469 C 204.265625 114.210938 204.3125 113.195312 204.414062 112.179688 C 204.515625 111.167969 204.664062 110.160156 204.863281 109.160156 C 205.0625 108.160156 205.308594 107.171875 205.605469 106.195312 C 205.902344 105.222656 206.246094 104.261719 206.636719 103.320312 C 207.027344 102.378906 207.460938 101.457031 207.945312 100.558594 C 208.425781 99.660156 208.949219 98.789062 209.515625 97.941406 C 210.082031 97.09375 210.691406 96.277344 211.339844 95.488281 C 211.984375 94.703125 212.671875 93.949219 213.390625 93.226562 C 213.613281 93.003906 213.855469 92.808594 214.117188 92.632812 C 214.378906 92.457031 214.65625 92.3125 214.945312 92.191406 C 215.238281 92.070312 215.535156 91.980469 215.84375 91.917969 C 216.152344 91.859375 216.464844 91.828125 216.777344 91.828125 C 217.09375 91.828125 217.40625 91.859375 217.714844 91.921875 C 218.023438 91.980469 218.320312 92.074219 218.613281 92.191406 C 218.902344 92.3125 219.179688 92.460938 219.441406 92.636719 C 219.699219 92.8125 219.941406 93.011719 220.164062 93.234375 C 220.386719 93.457031 220.585938 93.695312 220.761719 93.957031 C 220.933594 94.21875 221.082031 94.496094 221.203125 94.789062 C 221.320312 95.078125 221.414062 95.378906 221.472656 95.6875 C 221.535156 95.996094 221.566406 96.304688 221.566406 96.621094 C 221.566406 96.933594 221.535156 97.246094 221.472656 97.554688 C 221.410156 97.863281 221.320312 98.164062 221.199219 98.453125 C 221.078125 98.742188 220.929688 99.019531 220.757812 99.28125 C 220.582031 99.542969 220.382812 99.785156 220.160156 100.003906 C 219.660156 100.503906 219.1875 101.027344 218.742188 101.570312 C 218.292969 102.117188 217.875 102.683594 217.484375 103.269531 C 217.09375 103.855469 216.730469 104.457031 216.398438 105.082031 C 216.066406 105.703125 215.765625 106.339844 215.496094 106.988281 C 215.226562 107.640625 214.988281 108.304688 214.785156 108.980469 C 214.582031 109.652344 214.410156 110.335938 214.273438 111.027344 C 214.132812 111.71875 214.03125 112.414062 213.960938 113.117188 C 213.894531 113.820312 213.859375 114.523438 213.859375 115.226562 C 213.859375 115.933594 213.894531 116.636719 213.960938 117.335938 C 214.03125 118.039062 214.132812 118.734375 214.273438 119.425781 C 214.410156 120.117188 214.582031 120.800781 214.785156 121.476562 C 214.988281 122.148438 215.226562 122.8125 215.496094 123.464844 C 215.765625 124.113281 216.066406 124.75 216.398438 125.375 C 216.730469 125.996094 217.09375 126.597656 217.484375 127.183594 C 217.875 127.773438 218.292969 128.335938 218.742188 128.882812 C 219.1875 129.425781 219.660156 129.949219 220.160156 130.449219 C 220.496094 130.78125 220.773438 131.160156 220.996094 131.578125 C 221.21875 131.996094 221.378906 132.4375 221.46875 132.898438 C 221.5625 133.363281 221.585938 133.832031 221.539062 134.304688 C 221.492188 134.773438 221.378906 135.230469 221.199219 135.667969 C 221.019531 136.105469 220.777344 136.507812 220.480469 136.875 C 220.179688 137.238281 219.832031 137.554688 219.4375 137.820312 C 219.046875 138.082031 218.621094 138.285156 218.171875 138.421875 C 217.71875 138.5625 217.253906 138.632812 216.78125 138.632812 Z M 216.78125 138.632812 " fill-opacity="1" fill-rule="nonzero"/><path fill="#018fa8" d="M 216.78125 175.851562 C 216.308594 175.851562 215.84375 175.78125 215.394531 175.644531 C 214.941406 175.503906 214.519531 175.304688 214.125 175.042969 C 213.730469 174.777344 213.386719 174.464844 213.085938 174.097656 C 212.785156 173.730469 212.546875 173.332031 212.363281 172.894531 C 212.183594 172.457031 212.070312 172.003906 212.023438 171.53125 C 211.976562 171.0625 212 170.59375 212.089844 170.128906 C 212.179688 169.667969 212.335938 169.226562 212.558594 168.808594 C 212.78125 168.390625 213.058594 168.011719 213.390625 167.679688 C 213.890625 167.179688 214.359375 166.65625 214.808594 166.113281 C 215.253906 165.566406 215.671875 165 216.0625 164.414062 C 216.453125 163.828125 216.816406 163.226562 217.148438 162.605469 C 217.480469 161.980469 217.78125 161.347656 218.050781 160.695312 C 218.316406 160.042969 218.554688 159.382812 218.757812 158.707031 C 218.964844 158.03125 219.132812 157.351562 219.273438 156.660156 C 219.410156 155.96875 219.511719 155.273438 219.582031 154.570312 C 219.648438 153.871094 219.683594 153.167969 219.683594 152.460938 C 219.683594 151.757812 219.648438 151.054688 219.582031 150.351562 C 219.511719 149.652344 219.410156 148.957031 219.273438 148.265625 C 219.132812 147.574219 218.964844 146.890625 218.757812 146.21875 C 218.554688 145.542969 218.316406 144.878906 218.050781 144.230469 C 217.78125 143.578125 217.480469 142.941406 217.148438 142.320312 C 216.816406 141.699219 216.453125 141.09375 216.0625 140.507812 C 215.671875 139.921875 215.253906 139.355469 214.808594 138.8125 C 214.359375 138.265625 213.890625 137.746094 213.390625 137.246094 C 213.183594 137.019531 212.996094 136.777344 212.832031 136.515625 C 212.671875 136.257812 212.535156 135.980469 212.425781 135.695312 C 212.3125 135.410156 212.234375 135.113281 212.179688 134.8125 C 212.125 134.507812 212.101562 134.203125 212.105469 133.894531 C 212.113281 133.589844 212.148438 133.285156 212.210938 132.984375 C 212.273438 132.683594 212.367188 132.390625 212.484375 132.109375 C 212.605469 131.824219 212.75 131.554688 212.921875 131.300781 C 213.09375 131.046875 213.289062 130.808594 213.507812 130.59375 C 213.722656 130.375 213.960938 130.179688 214.214844 130.007812 C 214.46875 129.835938 214.738281 129.6875 215.019531 129.566406 C 215.300781 129.445312 215.59375 129.355469 215.894531 129.289062 C 216.195312 129.226562 216.5 129.1875 216.804688 129.183594 C 217.113281 129.175781 217.417969 129.199219 217.722656 129.253906 C 218.023438 129.304688 218.320312 129.386719 218.605469 129.496094 C 218.894531 129.605469 219.167969 129.738281 219.429688 129.902344 C 219.691406 130.0625 219.933594 130.25 220.160156 130.457031 C 220.878906 131.179688 221.5625 131.933594 222.210938 132.722656 C 222.855469 133.507812 223.460938 134.328125 224.027344 135.175781 C 224.59375 136.023438 225.117188 136.894531 225.597656 137.792969 C 226.074219 138.691406 226.511719 139.613281 226.898438 140.554688 C 227.289062 141.496094 227.632812 142.453125 227.929688 143.429688 C 228.222656 144.40625 228.472656 145.390625 228.667969 146.390625 C 228.867188 147.390625 229.019531 148.398438 229.117188 149.414062 C 229.21875 150.425781 229.265625 151.441406 229.265625 152.460938 C 229.265625 153.480469 229.21875 154.496094 229.117188 155.511719 C 229.019531 156.527344 228.867188 157.53125 228.667969 158.53125 C 228.472656 159.53125 228.222656 160.519531 227.929688 161.492188 C 227.632812 162.46875 227.289062 163.425781 226.898438 164.367188 C 226.511719 165.3125 226.074219 166.230469 225.597656 167.128906 C 225.117188 168.027344 224.59375 168.902344 224.027344 169.75 C 223.460938 170.597656 222.855469 171.414062 222.210938 172.203125 C 221.5625 172.992188 220.878906 173.746094 220.160156 174.464844 C 219.710938 174.914062 219.195312 175.257812 218.609375 175.496094 C 218.023438 175.738281 217.414062 175.855469 216.78125 175.851562 Z M 216.78125 175.851562 " fill-opacity="1" fill-rule="nonzero"/><path fill="#018fa8" d="M 239.253906 186.21875 C 238.617188 186.222656 238.007812 186.101562 237.417969 185.855469 C 236.832031 185.613281 236.3125 185.265625 235.867188 184.8125 C 235.644531 184.589844 235.445312 184.347656 235.269531 184.085938 C 235.09375 183.824219 234.945312 183.546875 234.824219 183.257812 C 234.703125 182.964844 234.613281 182.667969 234.550781 182.359375 C 234.492188 182.050781 234.460938 181.738281 234.460938 181.421875 C 234.460938 181.109375 234.492188 180.796875 234.550781 180.488281 C 234.613281 180.179688 234.703125 179.878906 234.824219 179.585938 C 234.945312 179.296875 235.09375 179.019531 235.269531 178.757812 C 235.445312 178.496094 235.644531 178.253906 235.867188 178.035156 C 236.804688 177.09375 237.691406 176.113281 238.53125 175.085938 C 239.371094 174.058594 240.160156 172.996094 240.894531 171.890625 C 241.628906 170.789062 242.308594 169.652344 242.933594 168.480469 C 243.558594 167.308594 244.121094 166.113281 244.628906 164.886719 C 245.136719 163.660156 245.582031 162.414062 245.964844 161.144531 C 246.347656 159.875 246.671875 158.589844 246.929688 157.289062 C 247.1875 155.988281 247.382812 154.679688 247.511719 153.359375 C 247.640625 152.039062 247.707031 150.714844 247.707031 149.390625 C 247.707031 148.0625 247.640625 146.742188 247.511719 145.421875 C 247.382812 144.101562 247.1875 142.792969 246.929688 141.492188 C 246.671875 140.191406 246.347656 138.90625 245.964844 137.636719 C 245.582031 136.367188 245.136719 135.117188 244.628906 133.894531 C 244.121094 132.667969 243.558594 131.46875 242.933594 130.300781 C 242.308594 129.128906 241.628906 127.992188 240.894531 126.890625 C 240.160156 125.785156 239.371094 124.722656 238.53125 123.695312 C 237.691406 122.667969 236.804688 121.6875 235.867188 120.746094 C 235.644531 120.523438 235.445312 120.28125 235.269531 120.019531 C 235.09375 119.757812 234.945312 119.480469 234.824219 119.191406 C 234.703125 118.898438 234.613281 118.601562 234.550781 118.292969 C 234.492188 117.984375 234.460938 117.671875 234.460938 117.355469 C 234.457031 117.039062 234.488281 116.730469 234.550781 116.421875 C 234.613281 116.109375 234.703125 115.8125 234.824219 115.519531 C 234.941406 115.230469 235.089844 114.953125 235.265625 114.691406 C 235.441406 114.429688 235.640625 114.1875 235.863281 113.964844 C 236.085938 113.742188 236.324219 113.542969 236.585938 113.367188 C 236.847656 113.191406 237.125 113.042969 237.417969 112.921875 C 237.707031 112.800781 238.007812 112.710938 238.316406 112.648438 C 238.625 112.585938 238.9375 112.554688 239.253906 112.554688 C 239.566406 112.554688 239.878906 112.585938 240.1875 112.648438 C 240.496094 112.707031 240.796875 112.800781 241.085938 112.917969 C 241.378906 113.039062 241.65625 113.1875 241.917969 113.363281 C 242.179688 113.539062 242.421875 113.734375 242.644531 113.957031 C 243.800781 115.121094 244.902344 116.335938 245.9375 117.605469 C 246.976562 118.875 247.953125 120.191406 248.863281 121.554688 C 249.769531 122.921875 250.613281 124.328125 251.382812 125.773438 C 252.15625 127.222656 252.855469 128.703125 253.480469 130.21875 C 254.105469 131.734375 254.65625 133.277344 255.132812 134.847656 C 255.609375 136.417969 256.003906 138.007812 256.324219 139.613281 C 256.644531 141.222656 256.882812 142.84375 257.042969 144.476562 C 257.203125 146.109375 257.285156 147.746094 257.285156 149.386719 C 257.285156 151.023438 257.203125 152.660156 257.042969 154.292969 C 256.882812 155.925781 256.644531 157.546875 256.324219 159.15625 C 256.003906 160.765625 255.609375 162.351562 255.132812 163.921875 C 254.65625 165.492188 254.105469 167.035156 253.480469 168.550781 C 252.855469 170.066406 252.15625 171.546875 251.382812 172.996094 C 250.613281 174.441406 249.769531 175.847656 248.863281 177.214844 C 247.953125 178.578125 246.976562 179.894531 245.9375 181.164062 C 244.902344 182.433594 243.800781 183.648438 242.644531 184.8125 C 242.195312 185.261719 241.679688 185.609375 241.089844 185.855469 C 240.503906 186.097656 239.890625 186.21875 239.253906 186.21875 Z M 239.253906 186.21875 " fill-opacity="1" fill-rule="nonzero"/></svg>