<svg xmlns="http://www.w3.org/2000/svg" xmlns:xlink="http://www.w3.org/1999/xlink" width="500" zoomAndPan="magnify" viewBox="0 0 375 374.999991" height="500" preserveAspectRatio="xMidYMid meet" version="1.0"><defs><clipPath id="55c8564455"><path d="M 82.457031 85.582031 L 299.207031 85.582031 L 299.207031 302.332031 L 82.457031 302.332031 Z M 82.457031 85.582031 " clip-rule="nonzero"/></clipPath></defs><g clip-path="url(#55c8564455)"><path fill="#008ba4" d="M 292.09375 291.605469 C 292.09375 293.597656 290.472656 295.21875 288.480469 295.21875 L 165.589844 295.21875 C 163.597656 295.21875 161.976562 293.597656 161.976562 291.605469 L 161.976562 212.085938 C 161.976562 210.097656 163.597656 208.472656 165.589844 208.472656 L 288.480469 208.472656 C 290.472656 208.472656 292.09375 210.097656 292.09375 212.085938 Z M 89.6875 248.230469 L 89.6875 216.125 C 102.125 224.824219 128.78125 229.367188 154.746094 230.0625 L 154.746094 266.164062 C 114.367188 265.0625 89.6875 255.164062 89.6875 248.230469 Z M 89.6875 169.066406 C 102.972656 178.355469 132.59375 183.171875 161.976562 183.171875 C 191.355469 183.171875 220.992188 178.355469 234.265625 169.066406 L 234.265625 201.242188 L 165.589844 201.242188 C 159.601562 201.242188 154.746094 206.101562 154.746094 212.085938 L 154.746094 222.804688 C 114.367188 221.703125 89.6875 211.789062 89.6875 204.859375 Z M 89.6875 122.078125 C 102.972656 131.371094 132.59375 136.183594 161.976562 136.183594 C 191.355469 136.183594 220.992188 131.371094 234.265625 122.078125 L 234.265625 157.871094 C 234.265625 165.242188 206.109375 175.941406 161.976562 175.941406 C 117.851562 175.941406 89.6875 165.242188 89.6875 157.871094 Z M 161.976562 92.808594 C 206.109375 92.808594 234.265625 103.511719 234.265625 110.882812 C 234.265625 118.253906 206.109375 128.953125 161.976562 128.953125 C 117.851562 128.953125 89.6875 118.253906 89.6875 110.882812 C 89.6875 103.511719 117.851562 92.808594 161.976562 92.808594 Z M 288.480469 201.242188 L 241.492188 201.242188 L 241.492188 110.882812 C 241.492188 94.277344 201.492188 85.582031 161.976562 85.582031 C 122.457031 85.582031 82.457031 94.277344 82.457031 110.882812 L 82.457031 248.230469 C 82.457031 263.648438 118.25 272.433594 154.746094 273.421875 L 154.746094 291.605469 C 154.746094 297.589844 159.601562 302.449219 165.589844 302.449219 L 288.480469 302.449219 C 294.46875 302.449219 299.324219 297.589844 299.324219 291.605469 L 299.324219 212.085938 C 299.324219 206.101562 294.46875 201.242188 288.480469 201.242188 " fill-opacity="1" fill-rule="nonzero"/></g><path fill="#008ba4" d="M 233.207031 263.75 C 231.792969 262.335938 229.507812 262.335938 228.09375 263.75 C 226.683594 265.160156 226.683594 267.449219 228.09375 268.859375 L 228.886719 269.648438 C 228.292969 269.804688 227.671875 269.917969 227.035156 269.917969 C 223.054688 269.917969 219.804688 266.671875 219.804688 262.691406 L 219.804688 241.003906 C 219.804688 237.019531 223.054688 233.773438 227.035156 233.773438 C 231.015625 233.773438 234.265625 237.019531 234.265625 241.003906 L 234.265625 262.691406 C 234.265625 263.324219 234.152344 263.945312 233.996094 264.539062 Z M 227.035156 226.546875 C 219.058594 226.546875 212.578125 233.027344 212.578125 241.003906 L 212.578125 262.691406 C 212.578125 270.667969 219.058594 277.148438 227.035156 277.148438 C 229.703125 277.148438 232.1875 276.371094 234.335938 275.101562 L 235.324219 276.089844 C 236.027344 276.792969 236.945312 277.148438 237.878906 277.148438 C 238.808594 277.148438 239.726562 276.792969 240.433594 276.089844 C 241.847656 274.675781 241.847656 272.390625 240.433594 270.976562 L 239.445312 269.988281 C 240.714844 267.84375 241.492188 265.359375 241.492188 262.691406 L 241.492188 241.003906 C 241.492188 233.027344 235.011719 226.546875 227.035156 226.546875 " fill-opacity="1" fill-rule="nonzero"/><path fill="#008ba4" d="M 190.890625 233.773438 C 194.871094 233.773438 198.121094 237.019531 198.121094 241.003906 C 198.121094 242.992188 199.742188 244.617188 201.734375 244.617188 C 203.726562 244.617188 205.347656 242.992188 205.347656 241.003906 C 205.347656 233.027344 198.867188 226.546875 190.890625 226.546875 C 182.914062 226.546875 176.433594 233.027344 176.433594 241.003906 C 176.433594 248.980469 182.914062 255.460938 190.890625 255.460938 C 194.871094 255.460938 198.121094 258.707031 198.121094 262.691406 C 198.121094 266.671875 194.871094 269.917969 190.890625 269.917969 C 186.910156 269.917969 183.660156 266.671875 183.660156 262.691406 C 183.660156 260.699219 182.039062 259.074219 180.046875 259.074219 C 178.054688 259.074219 176.433594 260.699219 176.433594 262.691406 C 176.433594 270.667969 182.914062 277.148438 190.890625 277.148438 C 198.867188 277.148438 205.347656 270.667969 205.347656 262.691406 C 205.347656 254.710938 198.867188 248.230469 190.890625 248.230469 C 186.910156 248.230469 183.660156 244.984375 183.660156 241.003906 C 183.660156 237.019531 186.910156 233.773438 190.890625 233.773438 " fill-opacity="1" fill-rule="nonzero"/><path fill="#008ba4" d="M 274.023438 269.917969 L 255.949219 269.917969 L 255.949219 230.160156 C 255.949219 228.167969 254.328125 226.546875 252.335938 226.546875 C 250.34375 226.546875 248.722656 228.167969 248.722656 230.160156 L 248.722656 273.53125 C 248.722656 275.523438 250.34375 277.148438 252.335938 277.148438 L 274.023438 277.148438 C 276.015625 277.148438 277.636719 275.523438 277.636719 273.53125 C 277.636719 271.542969 276.015625 269.917969 274.023438 269.917969 " fill-opacity="1" fill-rule="nonzero"/></svg>