<svg xmlns="http://www.w3.org/2000/svg" xmlns:xlink="http://www.w3.org/1999/xlink" width="500" zoomAndPan="magnify" viewBox="0 0 375 374.999991" height="500" preserveAspectRatio="xMidYMid meet" version="1.0"><defs><clipPath id="296a3daa4e"><path d="M 76.695312 97 L 297.945312 97 L 297.945312 278.140625 L 76.695312 278.140625 Z M 76.695312 97 " clip-rule="nonzero"/></clipPath></defs><g clip-path="url(#296a3daa4e)"><path fill="#008ba4" d="M 205.191406 97.070312 C 182.082031 97.070312 162.609375 110.867188 153.199219 130.414062 C 148.183594 126.941406 142.425781 124.441406 135.886719 124.441406 C 119.421875 124.441406 106.179688 137.476562 105.191406 153.699219 C 88.6875 159.664062 76.695312 175.097656 76.695312 193.613281 C 76.695312 217.226562 95.933594 236.46875 119.554688 236.46875 L 138.742188 236.46875 C 139.039062 236.472656 139.328125 236.449219 139.617188 236.394531 C 139.90625 236.339844 140.1875 236.261719 140.460938 236.152344 C 140.730469 236.042969 140.992188 235.90625 141.238281 235.746094 C 141.480469 235.585938 141.710938 235.402344 141.917969 235.195312 C 142.128906 234.988281 142.316406 234.761719 142.480469 234.519531 C 142.644531 234.277344 142.78125 234.019531 142.894531 233.75 C 143.007812 233.476562 143.09375 233.199219 143.152344 232.910156 C 143.210938 232.621094 143.238281 232.332031 143.238281 232.039062 C 143.238281 231.742188 143.210938 231.453125 143.152344 231.164062 C 143.09375 230.878906 143.007812 230.597656 142.894531 230.328125 C 142.78125 230.054688 142.644531 229.800781 142.480469 229.554688 C 142.316406 229.3125 142.128906 229.085938 141.917969 228.882812 C 141.710938 228.675781 141.480469 228.492188 141.238281 228.332031 C 140.992188 228.167969 140.730469 228.035156 140.460938 227.925781 C 140.1875 227.816406 139.90625 227.734375 139.617188 227.679688 C 139.328125 227.625 139.039062 227.601562 138.742188 227.605469 L 119.554688 227.605469 C 100.722656 227.605469 85.558594 212.4375 85.558594 193.613281 C 85.558594 177.9375 96.136719 164.851562 110.5 160.882812 C 110.976562 160.75 111.421875 160.542969 111.832031 160.257812 C 112.242188 159.976562 112.59375 159.636719 112.886719 159.234375 C 113.183594 158.832031 113.402344 158.394531 113.550781 157.917969 C 113.695312 157.441406 113.761719 156.957031 113.746094 156.460938 C 113.722656 155.839844 113.691406 155.527344 113.691406 155.5 C 113.691406 143.1875 123.574219 133.304688 135.886719 133.304688 C 142.042969 133.304688 147.570312 135.792969 151.589844 139.820312 C 151.851562 140.085938 152.144531 140.3125 152.464844 140.503906 C 152.785156 140.691406 153.121094 140.839844 153.480469 140.945312 C 153.835938 141.050781 154.199219 141.109375 154.570312 141.121094 C 154.945312 141.136719 155.3125 141.101562 155.675781 141.023438 C 156.039062 140.945312 156.386719 140.820312 156.71875 140.652344 C 157.050781 140.488281 157.359375 140.28125 157.636719 140.039062 C 157.917969 139.792969 158.164062 139.519531 158.375 139.210938 C 158.589844 138.90625 158.757812 138.578125 158.886719 138.230469 C 165.855469 119.394531 183.882812 105.933594 205.191406 105.933594 C 232.539062 105.933594 254.609375 128 254.609375 155.34375 C 254.609375 157.359375 254.441406 159.398438 254.183594 161.472656 C 254.148438 161.78125 254.140625 162.09375 254.171875 162.40625 C 254.199219 162.71875 254.257812 163.023438 254.351562 163.324219 C 254.445312 163.625 254.570312 163.910156 254.722656 164.183594 C 254.875 164.457031 255.058594 164.710938 255.265625 164.945312 C 255.472656 165.179688 255.703125 165.390625 255.957031 165.578125 C 256.207031 165.761719 256.476562 165.917969 256.761719 166.046875 C 257.050781 166.175781 257.34375 166.273438 257.652344 166.339844 C 257.957031 166.40625 258.269531 166.441406 258.582031 166.441406 C 259.113281 166.441406 259.195312 166.429688 258.839844 166.429688 C 275.792969 166.433594 289.433594 180.078125 289.433594 197.023438 C 289.433594 213.96875 275.792969 227.605469 258.839844 227.605469 L 236.25 227.605469 C 235.953125 227.601562 235.664062 227.625 235.375 227.679688 C 235.085938 227.734375 234.804688 227.816406 234.535156 227.925781 C 234.261719 228.035156 234 228.167969 233.757812 228.332031 C 233.511719 228.492188 233.28125 228.675781 233.074219 228.882812 C 232.863281 229.085938 232.679688 229.3125 232.511719 229.554688 C 232.347656 229.800781 232.210938 230.054688 232.097656 230.328125 C 231.984375 230.597656 231.898438 230.878906 231.839844 231.164062 C 231.78125 231.453125 231.753906 231.742188 231.753906 232.039062 C 231.753906 232.332031 231.78125 232.621094 231.839844 232.910156 C 231.898438 233.199219 231.984375 233.476562 232.097656 233.75 C 232.210938 234.019531 232.347656 234.277344 232.511719 234.519531 C 232.679688 234.761719 232.863281 234.988281 233.074219 235.195312 C 233.28125 235.402344 233.511719 235.585938 233.757812 235.746094 C 234 235.90625 234.261719 236.042969 234.535156 236.152344 C 234.804688 236.261719 235.085938 236.339844 235.375 236.394531 C 235.664062 236.449219 235.953125 236.472656 236.25 236.46875 L 258.839844 236.46875 C 280.582031 236.46875 298.296875 218.757812 298.296875 197.023438 C 298.296875 176.855469 282.835938 160.761719 263.265625 158.460938 C 263.332031 157.414062 263.472656 156.425781 263.472656 155.34375 C 263.472656 123.207031 237.328125 97.070312 205.191406 97.070312 Z M 160.902344 177.019531 L 135.609375 202.3125 C 135.398438 202.515625 135.207031 202.738281 135.039062 202.980469 C 134.871094 203.222656 134.730469 203.480469 134.613281 203.75 C 134.496094 204.019531 134.40625 204.300781 134.34375 204.589844 C 134.28125 204.878906 134.25 205.167969 134.25 205.464844 C 134.246094 205.757812 134.269531 206.050781 134.328125 206.339844 C 134.382812 206.628906 134.464844 206.910156 134.578125 207.183594 C 134.6875 207.457031 134.824219 207.71875 134.988281 207.960938 C 135.152344 208.207031 135.335938 208.433594 135.546875 208.644531 C 135.753906 208.851562 135.980469 209.039062 136.226562 209.199219 C 136.472656 209.363281 136.730469 209.5 137.003906 209.613281 C 137.277344 209.722656 137.558594 209.808594 137.847656 209.863281 C 138.136719 209.917969 138.429688 209.945312 138.726562 209.941406 C 139.019531 209.9375 139.3125 209.90625 139.601562 209.84375 C 139.886719 209.785156 140.167969 209.695312 140.4375 209.578125 C 140.710938 209.460938 140.964844 209.320312 141.207031 209.148438 C 141.449219 208.980469 141.671875 208.792969 141.878906 208.578125 L 156.472656 193.984375 L 156.472656 271.925781 C 156.46875 272.21875 156.492188 272.511719 156.546875 272.800781 C 156.601562 273.089844 156.683594 273.367188 156.792969 273.640625 C 156.902344 273.914062 157.035156 274.171875 157.195312 274.417969 C 157.359375 274.664062 157.542969 274.890625 157.746094 275.101562 C 157.953125 275.308594 158.179688 275.496094 158.421875 275.660156 C 158.664062 275.824219 158.921875 275.964844 159.195312 276.078125 C 159.464844 276.191406 159.742188 276.277344 160.03125 276.335938 C 160.320312 276.390625 160.609375 276.421875 160.902344 276.421875 C 161.199219 276.421875 161.488281 276.390625 161.777344 276.335938 C 162.066406 276.277344 162.34375 276.191406 162.613281 276.078125 C 162.886719 275.964844 163.144531 275.824219 163.386719 275.660156 C 163.628906 275.496094 163.855469 275.308594 164.058594 275.101562 C 164.265625 274.890625 164.449219 274.664062 164.609375 274.417969 C 164.773438 274.171875 164.90625 273.914062 165.015625 273.640625 C 165.125 273.367188 165.207031 273.089844 165.261719 272.800781 C 165.316406 272.511719 165.339844 272.21875 165.335938 271.925781 L 165.335938 193.984375 L 179.929688 208.578125 C 180.136719 208.792969 180.359375 208.980469 180.601562 209.148438 C 180.84375 209.320312 181.097656 209.460938 181.371094 209.578125 C 181.640625 209.695312 181.917969 209.785156 182.207031 209.84375 C 182.496094 209.90625 182.789062 209.9375 183.082031 209.941406 C 183.378906 209.945312 183.671875 209.917969 183.960938 209.863281 C 184.25 209.808594 184.53125 209.722656 184.804688 209.613281 C 185.078125 209.5 185.335938 209.363281 185.582031 209.199219 C 185.828125 209.039062 186.054688 208.851562 186.261719 208.644531 C 186.472656 208.433594 186.65625 208.207031 186.820312 207.960938 C 186.984375 207.71875 187.121094 207.457031 187.230469 207.183594 C 187.34375 206.910156 187.425781 206.628906 187.480469 206.339844 C 187.539062 206.050781 187.5625 205.757812 187.558594 205.464844 C 187.558594 205.167969 187.523438 204.878906 187.464844 204.589844 C 187.402344 204.300781 187.3125 204.019531 187.195312 203.75 C 187.078125 203.480469 186.9375 203.222656 186.769531 202.980469 C 186.601562 202.738281 186.410156 202.515625 186.199219 202.3125 Z M 214.019531 178.792969 C 213.730469 178.796875 213.441406 178.832031 213.15625 178.890625 C 212.871094 178.953125 212.597656 179.039062 212.332031 179.15625 C 212.0625 179.269531 211.8125 179.410156 211.570312 179.578125 C 211.332031 179.742188 211.109375 179.929688 210.910156 180.136719 C 210.707031 180.34375 210.527344 180.570312 210.367188 180.816406 C 210.210938 181.058594 210.078125 181.316406 209.96875 181.585938 C 209.863281 181.855469 209.78125 182.136719 209.730469 182.421875 C 209.675781 182.707031 209.652344 182.996094 209.65625 183.285156 L 209.65625 261.226562 L 195.0625 246.632812 C 194.191406 245.738281 193.132812 245.289062 191.886719 245.289062 C 191.445312 245.289062 191.011719 245.355469 190.589844 245.484375 C 190.167969 245.613281 189.777344 245.800781 189.410156 246.046875 C 189.042969 246.292969 188.722656 246.585938 188.445312 246.929688 C 188.167969 247.269531 187.945312 247.648438 187.78125 248.054688 C 187.613281 248.464844 187.511719 248.886719 187.472656 249.328125 C 187.433594 249.765625 187.457031 250.199219 187.546875 250.632812 C 187.636719 251.0625 187.789062 251.472656 188.003906 251.859375 C 188.214844 252.246094 188.480469 252.59375 188.792969 252.898438 L 214.089844 278.191406 L 239.382812 252.898438 C 239.59375 252.695312 239.785156 252.472656 239.953125 252.230469 C 240.121094 251.988281 240.265625 251.730469 240.382812 251.460938 C 240.5 251.191406 240.585938 250.910156 240.648438 250.621094 C 240.710938 250.332031 240.742188 250.042969 240.746094 249.746094 C 240.746094 249.453125 240.722656 249.160156 240.667969 248.871094 C 240.609375 248.582031 240.527344 248.300781 240.417969 248.027344 C 240.304688 247.753906 240.167969 247.496094 240.003906 247.25 C 239.839844 247.003906 239.65625 246.777344 239.445312 246.566406 C 239.238281 246.359375 239.011719 246.171875 238.765625 246.011719 C 238.519531 245.847656 238.261719 245.710938 237.988281 245.597656 C 237.714844 245.488281 237.433594 245.402344 237.144531 245.347656 C 236.855469 245.292969 236.5625 245.265625 236.265625 245.269531 C 235.972656 245.273438 235.679688 245.304688 235.390625 245.367188 C 235.105469 245.425781 234.824219 245.515625 234.554688 245.632812 C 234.285156 245.75 234.027344 245.894531 233.785156 246.0625 C 233.542969 246.230469 233.320312 246.417969 233.113281 246.632812 L 218.519531 261.226562 L 218.519531 183.285156 C 218.523438 182.988281 218.5 182.695312 218.445312 182.402344 C 218.390625 182.113281 218.304688 181.828125 218.195312 181.554688 C 218.082031 181.28125 217.945312 181.019531 217.78125 180.773438 C 217.617188 180.523438 217.429688 180.296875 217.21875 180.085938 C 217.011719 179.878906 216.78125 179.691406 216.535156 179.527344 C 216.285156 179.363281 216.027344 179.226562 215.75 179.117188 C 215.476562 179.003906 215.191406 178.921875 214.902344 178.867188 C 214.609375 178.8125 214.316406 178.789062 214.019531 178.792969 Z M 214.019531 178.792969 " fill-opacity="1" fill-rule="nonzero"/></g></svg>