<svg xmlns="http://www.w3.org/2000/svg" xmlns:xlink="http://www.w3.org/1999/xlink" width="500" zoomAndPan="magnify" viewBox="0 0 375 374.999991" height="500" preserveAspectRatio="xMidYMid meet" version="1.0"><defs><clipPath id="275007eb67"><path d="M 71.328125 92.820312 L 303.828125 92.820312 L 303.828125 281.820312 L 71.328125 281.820312 Z M 71.328125 92.820312 " clip-rule="nonzero"/></clipPath></defs><g clip-path="url(#275007eb67)"><path fill="#008ba4" d="M 303.621094 185.886719 C 303.621094 211.769531 282.558594 232.832031 256.671875 232.832031 C 254.667969 232.832031 253.050781 231.207031 253.050781 229.203125 C 253.050781 227.203125 254.667969 225.582031 256.671875 225.582031 C 278.558594 225.582031 296.371094 207.773438 296.371094 185.886719 C 296.371094 164 278.558594 146.195312 256.671875 146.195312 L 256.496094 146.195312 C 254.902344 146.195312 253.496094 145.160156 253.03125 143.640625 C 248.625 129.371094 235.628906 119.785156 220.683594 119.785156 C 212.21875 119.785156 204.109375 122.933594 197.867188 128.640625 C 196.96875 129.457031 195.726562 129.777344 194.554688 129.488281 C 193.378906 129.203125 192.425781 128.34375 192.007812 127.207031 C 186.121094 110.972656 170.554688 100.074219 153.28125 100.074219 C 130.574219 100.074219 112.09375 118.550781 112.09375 141.261719 C 112.09375 145.421875 112.710938 149.519531 113.925781 153.441406 C 114.261719 154.511719 114.074219 155.667969 113.4375 156.59375 C 112.796875 157.507812 111.769531 158.078125 110.644531 158.132812 C 92.695312 159.050781 78.625 173.855469 78.625 191.84375 C 78.625 210.441406 93.765625 225.582031 112.378906 225.582031 L 114.054688 225.582031 C 116.058594 225.582031 117.675781 227.203125 117.675781 229.203125 C 117.675781 231.207031 116.058594 232.832031 114.054688 232.832031 L 112.378906 232.832031 C 89.769531 232.832031 71.375 214.449219 71.375 191.84375 C 71.375 181.296875 75.410156 171.257812 82.730469 163.582031 C 89 157.011719 97.101562 152.757812 105.902344 151.351562 C 105.199219 148.050781 104.84375 144.667969 104.84375 141.261719 C 104.84375 114.550781 126.574219 92.820312 153.28125 92.820312 C 171.917969 92.820312 188.859375 103.609375 196.878906 120.132812 C 203.800781 115.199219 212.089844 112.535156 220.683594 112.535156 C 229.644531 112.535156 238.160156 115.363281 245.308594 120.722656 C 251.515625 125.375 256.347656 131.792969 259.101562 139.003906 C 283.863281 140.265625 303.621094 160.816406 303.621094 185.886719 Z M 248.660156 170.257812 L 248.660156 255.453125 C 248.589844 263.199219 241.53125 270.144531 228.785156 275.042969 C 217.117188 279.527344 201.691406 281.988281 185.359375 281.988281 C 169.027344 281.988281 153.601562 279.527344 141.933594 275.042969 C 129.1875 270.152344 122.128906 263.207031 122.050781 255.488281 L 122.050781 170.164062 C 122.128906 162.410156 129.1875 155.464844 141.933594 150.570312 C 153.601562 146.089844 169.027344 143.625 185.359375 143.625 C 201.691406 143.625 217.117188 146.089844 228.785156 150.570312 C 241.53125 155.464844 248.589844 162.414062 248.660156 170.128906 Z M 129.300781 170.257812 C 129.300781 174.660156 134.96875 179.472656 144.460938 183.136719 C 155.328125 187.320312 169.851562 189.628906 185.359375 189.628906 C 200.871094 189.628906 215.390625 187.320312 226.257812 183.136719 C 235.746094 179.472656 241.410156 174.660156 241.410156 170.257812 L 241.410156 170.164062 C 241.367188 165.789062 235.679688 160.988281 226.1875 157.339844 C 215.328125 153.167969 200.828125 150.875 185.359375 150.875 C 169.894531 150.875 155.390625 153.167969 144.535156 157.339844 C 135.039062 160.988281 129.34375 165.796875 129.300781 170.199219 Z M 241.410156 255.417969 L 241.410156 239.785156 C 238.203125 242.363281 233.960938 244.691406 228.785156 246.675781 C 217.117188 251.15625 201.699219 253.625 185.359375 253.625 C 169.027344 253.625 153.601562 251.15625 141.933594 246.675781 C 136.757812 244.6875 132.519531 242.363281 129.300781 239.785156 L 129.300781 255.453125 C 129.34375 259.820312 135.039062 264.625 144.535156 268.269531 C 155.390625 272.445312 169.894531 274.738281 185.359375 274.738281 C 200.828125 274.738281 215.328125 272.445312 226.1875 268.269531 C 235.679688 264.625 241.367188 259.820312 241.410156 255.417969 Z M 241.410156 227.054688 L 241.410156 211.410156 C 238.203125 213.988281 233.960938 216.316406 228.785156 218.304688 C 217.117188 222.792969 201.691406 225.261719 185.359375 225.261719 C 169.027344 225.261719 153.601562 222.792969 141.933594 218.304688 C 136.757812 216.316406 132.519531 213.988281 129.300781 211.410156 L 129.300781 227.089844 C 129.34375 231.457031 135.039062 236.261719 144.535156 239.90625 C 155.390625 244.074219 169.894531 246.375 185.359375 246.375 C 200.828125 246.375 215.328125 244.074219 226.1875 239.90625 C 235.679688 236.261719 241.367188 231.457031 241.410156 227.054688 Z M 241.410156 198.675781 L 241.410156 183.039062 C 238.214844 185.601562 234.003906 187.917969 228.863281 189.898438 C 217.1875 194.402344 201.734375 196.878906 185.359375 196.878906 C 168.984375 196.878906 153.53125 194.402344 141.847656 189.898438 C 136.707031 187.917969 132.496094 185.601562 129.300781 183.039062 L 129.300781 198.710938 C 129.34375 203.078125 135.039062 207.886719 144.535156 211.535156 C 155.390625 215.710938 169.894531 218.007812 185.359375 218.007812 C 200.828125 218.007812 215.328125 215.710938 226.1875 211.535156 C 235.679688 207.886719 241.367188 203.078125 241.410156 198.675781 Z M 228.621094 195.769531 C 217.734375 200.523438 201.96875 203.25 185.359375 203.25 C 176.015625 203.25 167.066406 202.410156 158.757812 200.769531 C 156.789062 200.378906 154.878906 201.660156 154.496094 203.625 C 154.105469 205.585938 155.382812 207.496094 157.34375 207.886719 C 166.121094 209.617188 175.546875 210.5 185.359375 210.5 C 202.929688 210.5 219.753906 207.550781 231.519531 202.417969 C 233.359375 201.617188 234.195312 199.476562 233.394531 197.644531 C 232.589844 195.808594 230.453125 194.96875 228.621094 195.769531 Z M 228.621094 225.328125 C 217.726562 230.070312 201.957031 232.796875 185.359375 232.796875 C 175.949219 232.796875 167.003906 231.960938 158.757812 230.320312 C 156.796875 229.929688 154.886719 231.199219 154.496094 233.167969 C 154.105469 235.128906 155.378906 237.039062 157.34375 237.429688 C 166.050781 239.167969 175.476562 240.046875 185.359375 240.046875 C 202.914062 240.046875 219.738281 237.109375 231.519531 231.980469 C 233.351562 231.179688 234.195312 229.042969 233.394531 227.210938 C 232.597656 225.371094 230.460938 224.53125 228.621094 225.328125 Z M 228.621094 254.882812 C 217.757812 259.621094 201.984375 262.339844 185.359375 262.339844 C 175.972656 262.339844 167.023438 261.515625 158.757812 259.882812 C 156.789062 259.492188 154.878906 260.769531 154.496094 262.730469 C 154.105469 264.699219 155.382812 266.609375 157.34375 266.992188 C 166.078125 268.71875 175.503906 269.597656 185.359375 269.597656 C 202.949219 269.597656 219.773438 266.652344 231.519531 261.523438 C 233.359375 260.726562 234.195312 258.589844 233.394531 256.75 C 232.589844 254.917969 230.453125 254.082031 228.621094 254.882812 Z M 142.785156 195.019531 C 139.925781 195.019531 137.59375 197.347656 137.59375 200.210938 C 137.59375 203.070312 139.925781 205.394531 142.785156 205.394531 C 145.648438 205.394531 147.972656 203.070312 147.972656 200.210938 C 147.972656 197.347656 145.648438 195.019531 142.785156 195.019531 Z M 142.785156 224.105469 C 139.925781 224.105469 137.59375 226.433594 137.59375 229.296875 C 137.59375 232.160156 139.925781 234.480469 142.785156 234.480469 C 145.648438 234.480469 147.972656 232.160156 147.972656 229.296875 C 147.972656 226.433594 145.648438 224.105469 142.785156 224.105469 Z M 142.785156 252.085938 C 139.925781 252.085938 137.59375 254.414062 137.59375 257.277344 C 137.59375 260.132812 139.925781 262.460938 142.785156 262.460938 C 145.648438 262.460938 147.972656 260.132812 147.972656 257.277344 C 147.972656 254.414062 145.648438 252.085938 142.785156 252.085938 Z M 142.785156 252.085938 " fill-opacity="1" fill-rule="nonzero"/></g></svg>