<svg xmlns="http://www.w3.org/2000/svg" xmlns:xlink="http://www.w3.org/1999/xlink" width="500" zoomAndPan="magnify" viewBox="0 0 375 374.999991" height="500" preserveAspectRatio="xMidYMid meet" version="1.0"><defs><clipPath id="ac4f365ef4"><path d="M 82.410156 82.410156 L 292.410156 82.410156 L 292.410156 292.410156 L 82.410156 292.410156 Z M 82.410156 82.410156 " clip-rule="nonzero"/></clipPath></defs><g clip-path="url(#ac4f365ef4)"><path fill="#008ba4" d="M 82.410156 82.410156 L 292.410156 82.410156 L 292.410156 292.410156 L 82.410156 292.410156 Z M 82.410156 82.410156 " fill-opacity="1" fill-rule="nonzero"/></g><path fill="#1b1f24" d="M 219.714844 239.601562 C 223.75 246.15625 228.136719 252.441406 237.429688 252.441406 C 245.234375 252.441406 249.332031 248.5625 249.332031 243.195312 C 249.332031 236.773438 245.097656 234.492188 236.507812 230.75 L 231.800781 228.746094 C 218.214844 222.980469 209.179688 215.761719 209.179688 200.507812 C 209.179688 186.449219 219.941406 175.75 236.761719 175.75 C 248.734375 175.75 257.339844 179.898438 263.546875 190.757812 L 248.882812 200.132812 C 245.65625 194.371094 242.167969 192.101562 236.761719 192.101562 C 231.242188 192.101562 227.746094 195.582031 227.746094 200.132812 C 227.746094 205.757812 231.246094 208.03125 239.328125 211.511719 L 244.035156 213.519531 C 260.046875 220.339844 269.078125 227.304688 269.078125 242.960938 C 269.078125 259.832031 255.753906 269.078125 237.867188 269.078125 C 220.375 269.078125 210.441406 260.296875 204.910156 249.429688 Z M 152.128906 240.078125 C 155.082031 245.363281 159.566406 249.429688 166.019531 249.429688 C 172.191406 249.429688 175.742188 246.992188 175.742188 237.511719 L 175.742188 175.742188 L 195.1875 175.742188 L 195.1875 240.5 C 195.1875 260.140625 183.792969 269.078125 167.15625 269.078125 C 152.125 269.078125 141.273438 258.890625 136.851562 249.429688 Z M 152.128906 240.078125 " fill-opacity="1" fill-rule="nonzero"/></svg>