<svg xmlns="http://www.w3.org/2000/svg" xmlns:xlink="http://www.w3.org/1999/xlink" width="500" zoomAndPan="magnify" viewBox="0 0 375 374.999991" height="500" preserveAspectRatio="xMidYMid meet" version="1.0"><defs><clipPath id="4f60c330cd"><path d="M 80.769531 80.769531 L 294.519531 80.769531 L 294.519531 294.519531 L 80.769531 294.519531 Z M 80.769531 80.769531 " clip-rule="nonzero"/></clipPath></defs><g clip-path="url(#4f60c330cd)"><path fill="#008ba4" d="M 80.769531 294.519531 L 294.519531 294.519531 L 294.519531 80.769531 L 80.769531 80.769531 Z M 80.769531 294.519531 " fill-opacity="1" fill-rule="nonzero"/></g><path fill="#1b1f24" d="M 128.027344 188.347656 L 127.960938 197.105469 L 155.78125 197.105469 L 155.78125 276.160156 L 175.460938 276.160156 L 175.460938 197.105469 L 203.285156 197.105469 L 203.285156 188.523438 C 203.285156 183.769531 203.183594 179.796875 203.046875 179.695312 C 202.945312 179.5625 186.015625 179.496094 165.484375 179.53125 L 128.128906 179.628906 Z M 128.027344 188.347656 " fill-opacity="1" fill-rule="nonzero"/><path fill="#1b1f24" d="M 253.25 179.386719 C 258.675781 180.738281 262.816406 183.152344 266.617188 187.085938 C 268.578125 189.191406 271.5 193.023438 271.734375 193.941406 C 271.800781 194.214844 262.507812 200.453125 256.871094 203.953125 C 256.671875 204.085938 255.863281 203.199219 254.941406 201.847656 C 252.195312 197.839844 249.308594 196.113281 244.898438 195.8125 C 238.417969 195.367188 234.246094 198.757812 234.277344 204.429688 C 234.277344 206.089844 234.519531 207.074219 235.195312 208.425781 C 236.625 211.382812 239.269531 213.144531 247.578125 216.742188 C 262.882812 223.324219 269.429688 227.664062 273.503906 233.84375 C 278.046875 240.730469 279.066406 251.71875 275.976562 259.894531 C 272.585938 268.785156 264.167969 274.824219 252.328125 276.828125 C 248.664062 277.46875 239.980469 277.371094 236.039062 276.660156 C 227.457031 275.132812 219.316406 270.890625 214.296875 265.328125 C 212.328125 263.160156 208.496094 257.488281 208.726562 257.082031 C 208.835938 256.945312 209.714844 256.402344 210.699219 255.828125 C 211.652344 255.285156 215.25 253.214844 218.640625 251.246094 L 224.777344 247.6875 L 226.070312 249.582031 C 227.867188 252.328125 231.804688 256.09375 234.175781 257.355469 C 241 260.945312 250.359375 260.4375 254.976562 256.304688 C 256.945312 254.5 257.757812 252.636719 257.757812 249.890625 C 257.757812 247.410156 257.457031 246.328125 256.164062 244.464844 C 254.5 242.085938 251.109375 240.082031 241.476562 235.914062 C 230.445312 231.164062 225.695312 228.207031 221.351562 223.523438 C 218.839844 220.808594 216.46875 216.46875 215.484375 212.835938 C 214.664062 209.820312 214.464844 202.257812 215.105469 199.199219 C 217.386719 188.546875 225.425781 181.117188 237.023438 178.910156 C 240.789062 178.203125 249.550781 178.46875 253.25 179.386719 Z M 253.25 179.386719 " fill-opacity="1" fill-rule="nonzero"/></svg>