<svg xmlns="http://www.w3.org/2000/svg" xmlns:xlink="http://www.w3.org/1999/xlink" width="500" zoomAndPan="magnify" viewBox="0 0 375 374.999991" height="500" preserveAspectRatio="xMidYMid meet" version="1.0"><defs><clipPath id="88cb31f3ad"><path d="M 94.089844 81 L 283.839844 81 L 283.839844 297 L 94.089844 297 Z M 94.089844 81 " clip-rule="nonzero"/></clipPath></defs><g clip-path="url(#88cb31f3ad)"><path fill="#008ba4" d="M 111.316406 275.21875 L 94.035156 81.523438 L 283.894531 81.523438 L 266.601562 275.191406 L 188.84375 296.726562 Z M 111.316406 275.21875 " fill-opacity="1" fill-rule="nonzero"/></g><path fill="#008ba4" d="M 251.792969 262.859375 L 266.574219 97.359375 L 188.964844 97.359375 L 188.964844 280.269531 Z M 251.792969 262.859375 " fill-opacity="1" fill-rule="nonzero"/><path fill="#1b1f24" d="M 188.882812 121.113281 L 129.363281 121.113281 L 135.773438 192.953125 L 188.964844 192.953125 L 188.964844 169.199219 L 157.515625 169.199219 L 155.34375 144.875 L 188.964844 144.875 L 188.964844 121.113281 Z M 188.964844 230.816406 L 188.863281 230.84375 L 162.394531 223.703125 L 160.710938 204.757812 L 136.839844 204.757812 L 140.167969 242.054688 L 188.859375 255.507812 L 188.964844 255.472656 Z M 188.964844 230.816406 " fill-opacity="1" fill-rule="nonzero"/><path fill="#1b1f24" d="M 188.882812 192.953125 L 218.15625 192.953125 L 215.464844 223.757812 L 188.953125 230.90625 L 188.953125 255.621094 L 237.679688 242.125 L 244.207031 169.1875 L 188.964844 169.1875 Z M 247.855469 127.488281 L 248.421875 121.113281 L 188.871094 121.113281 L 188.871094 144.867188 L 246.28125 144.867188 L 246.75 139.527344 Z M 247.855469 127.488281 " fill-opacity="1" fill-rule="nonzero"/></svg>