<svg xmlns="http://www.w3.org/2000/svg" xmlns:xlink="http://www.w3.org/1999/xlink" width="500" zoomAndPan="magnify" viewBox="0 0 375 374.999991" height="500" preserveAspectRatio="xMidYMid meet" version="1.0"><defs><clipPath id="3134f36bcb"><path d="M 89.722656 78.25 L 285.472656 78.25 L 285.472656 296.5 L 89.722656 296.5 Z M 89.722656 78.25 " clip-rule="nonzero"/></clipPath></defs><g clip-path="url(#3134f36bcb)"><path fill="#018fa8" d="M 285.445312 78.25 L 89.75 78.25 L 107.015625 273.527344 L 187.597656 296.5 L 268.179688 273.527344 Z M 285.445312 78.25 " fill-opacity="1" fill-rule="nonzero"/></g><path fill="#018fa8" d="M 187.597656 95.480469 L 187.597656 278.695312 L 252.0625 260.316406 L 266.449219 95.480469 Z M 187.597656 95.480469 " fill-opacity="1" fill-rule="nonzero"/><path fill="#1b1f24" d="M 239.972656 124.199219 L 187.597656 124.199219 L 187.597656 147.171875 L 215.800781 147.171875 L 214.074219 170.144531 L 187.597656 170.144531 L 187.597656 193.121094 L 212.921875 193.121094 L 211.195312 218.964844 L 187.597656 227.003906 L 187.597656 251.128906 L 233.066406 236.195312 L 237.097656 170.144531 Z M 239.972656 124.199219 " fill-opacity="1" fill-rule="nonzero"/><path fill="#1b1f24" d="M 187.597656 124.199219 L 187.597656 147.171875 L 136.371094 147.171875 L 134.644531 124.199219 Z M 161.121094 170.144531 L 162.273438 193.121094 L 187.597656 193.121094 L 187.597656 170.144531 Z M 163.421875 204.605469 L 140.398438 204.605469 L 142.125 236.195312 L 187.597656 251.128906 L 187.597656 227.003906 L 164 218.964844 Z M 163.421875 204.605469 " fill-opacity="1" fill-rule="nonzero"/></svg>