<svg xmlns="http://www.w3.org/2000/svg" xmlns:xlink="http://www.w3.org/1999/xlink" width="500" zoomAndPan="magnify" viewBox="0 0 375 374.999991" height="500" preserveAspectRatio="xMidYMid meet" version="1.0"><defs><clipPath id="7eb3e78fe9"><path d="M 85.089844 75 L 289 75 L 289 300 L 85.089844 300 Z M 85.089844 75 " clip-rule="nonzero"/></clipPath></defs><g clip-path="url(#7eb3e78fe9)"><path fill="#008ba4" d="M 178.015625 77.625 C 183.640625 74.4375 190.808594 74.425781 196.292969 77.625 L 280.261719 124.976562 C 285.515625 127.929688 289.03125 133.789062 288.980469 139.84375 L 288.980469 234.785156 C 289.015625 241.09375 285.15625 247.078125 279.617188 249.976562 L 196.097656 297.109375 C 194.667969 297.898438 193.160156 298.484375 191.574219 298.871094 C 189.988281 299.257812 188.382812 299.425781 186.75 299.382812 C 185.117188 299.335938 183.523438 299.078125 181.960938 298.605469 C 180.398438 298.132812 178.925781 297.460938 177.542969 296.59375 L 152.480469 282.109375 C 150.773438 281.085938 148.851562 280.277344 147.644531 278.625 C 148.710938 277.191406 150.609375 277.007812 152.15625 276.375 C 155.644531 275.265625 158.835938 273.5625 162.042969 271.761719 C 162.851562 271.199219 163.839844 271.410156 164.613281 271.917969 L 185.988281 284.28125 C 187.511719 285.160156 189.058594 284 190.367188 283.261719 L 272.375 236.964844 C 273.386719 236.472656 273.949219 235.402344 273.867188 234.292969 L 273.867188 140.265625 C 273.976562 139 273.253906 137.84375 272.109375 137.332031 L 188.800781 90.402344 C 188.308594 90.0625 187.761719 89.890625 187.164062 89.890625 C 186.566406 89.890625 186.023438 90.058594 185.53125 90.394531 L 102.339844 137.421875 C 101.214844 137.9375 100.441406 139.078125 100.582031 140.34375 L 100.582031 234.371094 C 100.484375 235.480469 101.074219 236.527344 102.09375 237.007812 L 124.324219 249.558594 C 128.5 251.8125 133.625 253.078125 138.222656 251.425781 C 139.230469 251.042969 140.15625 250.523438 141.003906 249.859375 C 141.847656 249.199219 142.578125 248.425781 143.1875 247.539062 C 143.796875 246.652344 144.261719 245.695312 144.578125 244.667969 C 144.898438 243.640625 145.054688 242.589844 145.050781 241.515625 L 145.070312 148.050781 C 144.972656 146.664062 146.28125 145.519531 147.621094 145.660156 L 158.308594 145.660156 C 159.714844 145.625 160.820312 147.113281 160.628906 148.507812 L 160.609375 242.5625 C 160.613281 250.917969 157.183594 260.003906 149.457031 264.105469 C 139.9375 269.027344 128.171875 267.992188 118.761719 263.261719 L 94.859375 250.039062 C 89.234375 247.226562 85.460938 241.148438 85.496094 234.847656 L 85.496094 139.90625 C 85.507812 138.363281 85.722656 136.847656 86.136719 135.363281 C 86.554688 133.878906 87.160156 132.472656 87.953125 131.148438 C 88.746094 129.824219 89.695312 128.628906 90.808594 127.5625 C 91.921875 126.492188 93.15625 125.589844 94.507812 124.847656 Z M 202.226562 143.4375 C 214.367188 142.734375 227.367188 142.972656 238.292969 148.957031 C 246.75 153.542969 251.4375 163.164062 251.59375 172.574219 C 251.355469 173.839844 250.03125 174.542969 248.824219 174.449219 C 245.308594 174.445312 241.78125 174.5 238.25 174.429688 C 236.753906 174.484375 235.886719 173.109375 235.699219 171.785156 C 234.6875 167.285156 232.230469 162.832031 228 160.660156 C 221.503906 157.402344 213.96875 157.566406 206.882812 157.636719 C 201.707031 157.917969 196.144531 158.359375 191.765625 161.398438 C 188.390625 163.703125 187.378906 168.429688 188.582031 172.101562 C 189.707031 174.796875 192.820312 175.660156 195.359375 176.460938 C 209.996094 180.289062 225.496094 179.980469 239.859375 184.949219 C 245.800781 187.003906 251.613281 191 253.652344 197.222656 C 256.3125 205.5625 255.152344 215.535156 249.226562 222.230469 C 244.414062 227.746094 237.414062 230.671875 230.417969 232.371094 C 221.117188 234.445312 211.472656 234.496094 202.03125 233.566406 C 193.152344 232.554688 183.914062 230.21875 177.058594 224.171875 C 171.195312 219.082031 168.339844 211.148438 168.621094 203.496094 C 168.691406 202.203125 169.980469 201.300781 171.222656 201.40625 L 181.769531 201.40625 C 183.1875 201.308594 184.230469 202.53125 184.300781 203.867188 C 184.953125 208.089844 186.5625 212.660156 190.304688 215.121094 C 197.515625 219.777344 206.566406 219.453125 214.816406 219.585938 C 221.660156 219.285156 229.335938 219.191406 234.925781 214.664062 C 237.878906 212.082031 238.742188 207.773438 237.949219 204.058594 C 237.082031 200.921875 233.730469 199.464844 230.917969 198.433594 C 216.46875 193.859375 200.792969 195.519531 186.484375 190.34375 C 180.679688 188.292969 175.0625 184.410156 172.832031 178.4375 C 169.71875 170 171.144531 159.542969 177.707031 153.070312 C 184.03125 146.636719 193.3125 144.152344 202.101562 143.269531 Z M 202.226562 143.4375 " fill-opacity="1" fill-rule="nonzero"/></g></svg>