<svg xmlns="http://www.w3.org/2000/svg" xmlns:xlink="http://www.w3.org/1999/xlink" width="500" zoomAndPan="magnify" viewBox="0 0 375 374.999991" height="500" preserveAspectRatio="xMidYMid meet" version="1.0"><defs><clipPath id="b1a8f1a373"><path d="M 82.097656 73 L 291 73 L 291 302 L 82.097656 302 Z M 82.097656 73 " clip-rule="nonzero"/></clipPath></defs><g clip-path="url(#b1a8f1a373)"><path fill="#008ba4" d="M 177.511719 73.917969 C 120.441406 73.917969 82.097656 95.058594 82.097656 114.796875 C 82.097656 134.546875 120.441406 155.695312 177.511719 155.695312 C 234.574219 155.695312 272.90625 134.546875 272.90625 114.796875 C 272.90625 95.058594 234.574219 73.917969 177.511719 73.917969 Z M 82.097656 135.746094 L 82.097656 160.921875 C 82.097656 180.335938 120.441406 201.125 177.511719 201.125 C 234.574219 201.125 272.90625 180.335938 272.90625 160.921875 L 272.90625 135.746094 C 256.222656 152.800781 220.265625 164.78125 177.511719 164.78125 C 134.746094 164.78125 98.785156 152.796875 82.097656 135.746094 Z M 82.097656 182.542969 L 82.097656 206.554688 C 82.097656 222.246094 107.164062 238.691406 146.90625 244.425781 L 147.351562 242.011719 L 179.144531 242.011719 C 184.710938 242.011719 189.65625 243.425781 193.75 245.925781 C 194.234375 245.886719 194.730469 245.863281 195.210938 245.828125 L 199.808594 223.839844 L 230.289062 223.839844 L 226.773438 240.671875 C 255.503906 233.175781 272.90625 219.609375 272.90625 206.554688 L 272.90625 182.542969 C 256.222656 199.589844 220.265625 210.210938 177.511719 210.210938 C 134.746094 210.210938 98.785156 199.589844 82.097656 182.542969 Z M 82.097656 228.179688 L 82.097656 251.78125 C 82.097656 266.378906 103.78125 281.746094 138.789062 288.480469 L 145.230469 253.503906 C 117.078125 249.644531 94.367188 240.71875 82.097656 228.179688 Z M 272.90625 228.179688 C 267.730469 233.464844 260.695312 238.113281 252.1875 242.011719 L 272.90625 242.011719 Z M 207.191406 232.925781 L 195.796875 287.441406 L 207.722656 287.441406 L 213.480469 260.183594 L 223.011719 260.183594 C 226.050781 260.183594 228.054688 260.6875 228.992188 261.691406 C 229.921875 262.703125 230.128906 264.617188 229.585938 267.378906 L 225.238281 287.441406 L 237.351562 287.441406 L 242.0625 265.738281 C 243.074219 260.535156 242.3125 256.714844 239.789062 254.398438 C 237.222656 252.046875 232.695312 251.097656 225.949219 251.097656 L 215.320312 251.097656 L 219.109375 232.925781 Z M 154.910156 251.097656 L 145.699219 301.070312 L 157.722656 301.070312 L 160.121094 287.441406 L 167.589844 287.441406 C 183.246094 287.441406 191.769531 283.816406 194.953125 270.378906 C 197.695312 258.835938 190.691406 251.097656 179.144531 251.097656 Z M 250.3125 251.097656 L 241.105469 301.070312 L 253.128906 301.070312 L 255.523438 287.441406 L 262.992188 287.441406 C 278.648438 287.441406 287.175781 283.816406 290.359375 270.378906 C 293.097656 258.835938 286.09375 251.097656 274.546875 251.097656 Z M 165.238281 260.183594 L 174.601562 260.183594 C 182.359375 260.183594 183.992188 263.679688 183.589844 267.574219 C 182.546875 277.597656 176.300781 278.355469 169.578125 278.355469 L 161.8125 278.355469 Z M 260.644531 260.183594 L 270.003906 260.183594 C 277.761719 260.183594 279.398438 263.679688 278.992188 267.574219 C 277.953125 277.597656 271.707031 278.355469 264.980469 278.355469 L 257.21875 278.355469 Z M 260.644531 260.183594 " fill-opacity="1" fill-rule="nonzero"/></g></svg>